<svg xmlns="http://www.w3.org/2000/svg" viewBox="0 0 1000 650" role="img" aria-label="CR first-level administrative map"><g fill="#e2e3e5" stroke="#fff" stroke-width="1.5" stroke-linejoin="round"><path id="r-alajuela" data-region="Alajuela" d="M 315.93,44.91 L 316.94,45.41 L 317.19,46.21 L 317.17,47.29 L 317.39,48.61 L 317.85,49.38 L 319.27,51.13 L 319.57,51.88 L 320.69,52.92 L 325.63,54.79 L 326.76,55.54 L 327.71,56.59 L 329.74,57.61 L 331.58,59.13 L 331.98,61.69 L 330.50,62.45 L 330.06,62.74 L 329.59,63.57 L 329.79,64.17 L 330.22,64.62 L 330.46,64.99 L 332.81,66.84 L 333.37,67.57 L 334.56,66.71 L 336.22,66.75 L 336.97,66.85 L 336.95,67.30 L 336.68,89.98 L 336.44,107.11 L 336.29,119.29 L 336.11,133.90 L 334.88,150.02 L 334.86,150.29 L 332.90,152.34 L 332.37,153.18 L 332.30,153.50 L 332.28,153.80 L 332.29,154.37 L 332.48,155.30 L 330.91,156.98 L 327.96,157.93 L 320.85,159.90 L 318.95,160.16 L 318.39,159.99 L 317.12,159.85 L 316.60,159.72 L 316.20,159.59 L 314.09,159.25 L 312.03,158.66 L 309.43,159.16 L 304.70,159.55 L 301.42,160.98 L 300.56,161.51 L 300.45,161.66 L 300.32,161.91 L 299.08,163.12 L 297.25,164.07 L 296.55,164.59 L 296.24,164.96 L 296.27,165.23 L 296.22,165.58 L 294.25,168.00 L 294.08,168.40 L 293.94,169.21 L 293.76,169.40 L 292.99,169.43 L 290.68,166.38 L 289.72,165.64 L 288.45,165.39 L 287.06,165.31 L 285.30,164.84 L 283.08,163.96 L 282.35,163.45 L 281.99,163.06 L 282.14,162.50 L 282.14,161.87 L 282.19,161.58 L 282.37,161.34 L 282.54,161.18 L 283.29,160.85 L 285.26,157.79 L 286.08,157.00 L 287.26,156.65 L 292.49,153.27 L 294.17,152.61 L 294.69,152.33 L 295.04,152.02 L 295.14,151.78 L 295.22,150.99 L 293.87,148.80 L 293.10,148.44 L 292.84,148.55 L 292.00,149.19 L 291.18,149.42 L 290.83,149.41 L 290.60,149.34 L 290.50,149.19 L 290.35,148.86 L 290.29,148.61 L 289.62,147.58 L 287.88,145.52 L 287.03,144.13 L 285.28,142.00 L 284.66,141.04 L 283.48,138.64 L 283.00,136.94 L 283.40,134.26 L 283.36,133.86 L 283.25,133.27 L 282.66,132.20 L 282.57,131.77 L 282.57,131.38 L 283.18,128.99 L 283.50,128.20 L 284.63,126.17 L 284.75,125.63 L 284.71,125.24 L 284.54,125.05 L 283.90,124.56 L 283.47,123.96 L 282.88,122.31 L 280.98,121.09 L 280.17,120.97 L 279.89,121.07 L 279.65,121.18 L 278.95,121.59 L 277.49,122.01 L 275.47,122.37 L 274.59,122.41 L 274.00,122.37 L 273.31,121.92 L 273.11,121.76 L 272.43,120.95 L 270.05,117.20 L 271.75,113.99 L 271.94,112.93 L 271.68,112.47 L 271.53,112.26 L 271.24,111.53 L 270.82,109.56 L 272.46,103.70 L 270.14,99.13 L 269.34,97.91 L 263.26,93.29 L 261.34,92.32 L 255.50,90.81 L 254.01,90.23 L 252.88,88.97 L 250.04,86.47 L 249.69,86.08 L 249.09,85.18 L 248.78,84.43 L 248.29,81.57 L 247.08,79.41 L 245.57,77.04 L 244.90,76.33 L 244.22,75.92 L 242.79,75.32 L 241.60,74.97 L 235.95,73.64 L 234.28,73.09 L 233.63,72.61 L 232.84,71.87 L 229.68,69.75 L 228.86,69.33 L 228.24,69.08 L 227.56,69.02 L 226.86,69.05 L 225.55,69.21 L 223.22,69.77 L 220.44,70.04 L 217.26,69.93 L 214.64,64.80 L 213.71,63.39 L 213.24,63.05 L 213.00,62.91 L 212.73,62.79 L 212.46,62.70 L 210.06,62.40 L 209.42,62.17 L 206.82,60.69 L 205.61,59.78 L 200.78,54.25 L 200.65,54.07 L 200.42,53.62 L 200.40,53.34 L 200.45,53.10 L 200.84,52.64 L 204.46,52.37 L 205.43,51.96 L 205.74,51.47 L 205.95,51.00 L 214.31,45.38 L 219.39,39.73 L 219.79,39.45 L 220.08,39.36 L 220.49,39.31 L 221.14,39.08 L 221.93,38.90 L 222.18,38.69 L 237.47,44.27 L 254.64,50.52 L 257.09,50.79 L 259.59,49.91 L 270.57,42.76 L 278.44,37.63 L 281.77,36.85 L 283.66,37.66 L 287.71,40.53 L 289.57,40.80 L 291.86,40.67 L 294.31,41.44 L 299.62,43.75 L 300.20,43.91 L 300.75,44.13 L 301.26,44.40 L 301.71,44.73 L 304.13,47.70 L 305.04,48.45 L 305.99,48.99 L 307.13,49.43 L 308.29,49.54 L 309.30,49.12 L 315.03,45.44 L 315.93,44.91 Z"/><path id="r-cartago" data-region="Cartago" d="M 363.10,156.73 L 363.49,156.65 L 363.84,156.54 L 365.18,155.09 L 366.46,154.94 L 367.06,154.73 L 367.46,154.38 L 367.78,153.96 L 368.02,153.09 L 367.54,150.75 L 367.34,147.98 L 367.05,147.04 L 366.65,146.44 L 364.52,144.06 L 364.31,143.91 L 363.82,143.66 L 362.92,143.03 L 361.99,142.22 L 361.59,141.74 L 361.35,141.31 L 359.85,136.26 L 373.18,142.19 L 377.85,144.37 L 384.27,147.37 L 394.70,152.18 L 397.49,153.18 L 412.83,153.30 L 424.10,153.56 L 426.23,153.98 L 425.98,154.40 L 424.66,156.29 L 423.82,158.03 L 423.47,159.91 L 423.63,162.25 L 424.86,166.03 L 425.13,167.96 L 424.42,169.80 L 419.89,175.40 L 416.67,179.26 L 415.83,180.58 L 413.44,186.58 L 407.28,193.90 L 405.80,196.89 L 405.44,200.14 L 405.67,201.15 L 405.89,202.46 L 406.53,203.90 L 406.73,204.20 L 407.07,204.56 L 407.30,204.87 L 407.98,206.27 L 408.36,207.41 L 397.16,200.68 L 396.89,200.59 L 395.84,200.09 L 394.92,199.33 L 392.20,196.52 L 390.94,196.90 L 390.52,197.37 L 389.99,198.32 L 389.83,198.53 L 389.63,198.70 L 389.43,198.84 L 389.20,198.96 L 388.92,199.06 L 388.63,199.14 L 388.31,199.17 L 387.95,199.19 L 386.72,199.07 L 386.41,199.14 L 385.88,199.33 L 384.40,200.05 L 384.17,200.03 L 383.99,199.87 L 383.76,198.46 L 383.44,197.33 L 383.33,197.06 L 383.04,196.79 L 382.57,196.51 L 380.96,195.97 L 380.43,195.64 L 380.15,195.42 L 378.95,193.77 L 376.91,193.99 L 376.40,194.03 L 374.06,193.54 L 373.77,193.44 L 373.45,193.18 L 373.09,192.78 L 372.56,191.95 L 372.11,191.10 L 371.90,190.61 L 371.83,190.34 L 371.10,188.83 L 370.30,187.52 L 370.13,187.31 L 369.82,187.10 L 369.38,186.95 L 368.53,186.86 L 368.09,186.93 L 367.78,187.08 L 367.55,187.22 L 367.29,187.31 L 366.76,187.19 L 364.57,186.11 L 363.27,185.65 L 362.97,185.57 L 362.40,185.06 L 360.04,182.03 L 359.10,180.46 L 359.06,180.25 L 359.00,180.01 L 358.42,179.50 L 356.36,178.83 L 355.66,177.54 L 355.47,177.00 L 355.25,176.49 L 355.02,175.47 L 354.14,175.35 L 350.21,176.22 L 349.60,176.08 L 348.97,175.99 L 348.65,176.02 L 347.79,176.24 L 346.50,176.74 L 346.19,176.77 L 345.89,176.76 L 345.66,176.64 L 345.50,176.44 L 345.38,176.18 L 345.33,175.88 L 345.32,175.55 L 345.39,175.08 L 345.72,174.40 L 346.43,173.24 L 348.30,171.57 L 349.62,170.68 L 350.41,169.83 L 353.48,164.92 L 351.35,164.00 L 350.95,163.77 L 350.77,163.63 L 350.95,162.76 L 353.76,158.17 L 358.66,156.45 L 358.76,156.39 L 361.56,156.36 L 362.53,156.51 L 362.78,156.64 L 363.10,156.73 Z"/><path id="r-guanacaste" data-region="Guanacaste" d="M 183.73,22.00 L 186.78,23.55 L 189.78,26.21 L 193.22,28.12 L 203.99,32.05 L 218.36,37.30 L 222.18,38.69 L 221.93,38.90 L 221.14,39.08 L 220.49,39.31 L 220.08,39.36 L 219.79,39.45 L 219.39,39.73 L 214.31,45.38 L 205.95,51.00 L 205.74,51.47 L 205.43,51.96 L 204.46,52.37 L 200.84,52.64 L 200.45,53.10 L 200.40,53.34 L 200.42,53.62 L 200.65,54.07 L 200.78,54.25 L 205.61,59.78 L 206.82,60.69 L 209.42,62.17 L 210.06,62.40 L 212.46,62.70 L 212.73,62.79 L 213.00,62.91 L 213.24,63.05 L 213.71,63.39 L 214.64,64.80 L 217.26,69.93 L 220.44,70.04 L 223.22,69.77 L 225.55,69.21 L 226.86,69.05 L 227.56,69.02 L 228.24,69.08 L 228.86,69.33 L 229.68,69.75 L 232.84,71.87 L 233.63,72.61 L 234.28,73.09 L 235.95,73.64 L 241.60,74.97 L 242.79,75.32 L 244.22,75.92 L 244.90,76.33 L 245.57,77.04 L 247.08,79.41 L 248.29,81.57 L 248.78,84.43 L 249.09,85.18 L 249.69,86.08 L 250.04,86.47 L 252.88,88.97 L 254.01,90.23 L 255.50,90.81 L 261.34,92.32 L 263.26,93.29 L 269.34,97.91 L 270.14,99.13 L 272.46,103.70 L 270.82,109.56 L 271.24,111.53 L 271.53,112.26 L 271.68,112.47 L 271.94,112.93 L 271.75,113.99 L 270.05,117.20 L 268.39,115.86 L 267.92,115.66 L 267.31,115.46 L 266.78,115.43 L 265.98,115.46 L 265.52,115.55 L 265.17,115.67 L 264.54,116.10 L 263.62,117.07 L 263.22,117.40 L 262.26,117.89 L 261.62,118.32 L 261.15,118.80 L 260.86,119.22 L 260.67,119.59 L 260.60,119.90 L 260.60,120.21 L 260.66,120.50 L 260.78,120.73 L 260.94,120.94 L 261.72,121.65 L 261.86,121.86 L 261.94,122.14 L 261.98,122.42 L 261.93,122.71 L 261.43,124.11 L 261.19,126.16 L 261.08,126.48 L 260.43,127.82 L 260.34,128.18 L 260.33,128.47 L 260.42,128.73 L 260.52,128.96 L 260.67,129.18 L 261.00,129.57 L 261.15,129.88 L 261.23,130.28 L 261.17,131.05 L 260.99,131.41 L 260.77,131.69 L 258.73,132.57 L 258.27,132.87 L 256.35,134.54 L 255.85,135.14 L 255.56,135.62 L 255.47,136.27 L 255.46,136.60 L 255.58,137.21 L 255.98,138.34 L 256.03,138.75 L 255.87,138.92 L 255.61,138.94 L 255.32,138.87 L 255.05,138.78 L 254.06,138.26 L 253.23,137.63 L 252.84,137.25 L 251.54,135.63 L 250.75,134.95 L 250.53,134.79 L 249.55,134.26 L 249.02,134.06 L 248.71,134.00 L 248.37,133.98 L 247.94,134.04 L 247.40,134.21 L 247.23,134.24 L 246.97,134.26 L 246.69,134.19 L 246.44,134.09 L 246.22,133.93 L 245.82,133.60 L 245.58,133.49 L 245.30,133.43 L 245.01,133.43 L 244.41,133.55 L 243.74,133.62 L 243.40,133.60 L 243.07,133.55 L 242.20,133.53 L 240.07,134.17 L 240.05,134.17 L 239.59,133.86 L 239.18,133.66 L 237.78,132.41 L 235.86,133.03 L 228.66,133.13 L 226.76,132.65 L 225.06,131.47 L 222.39,128.71 L 222.39,128.05 L 223.00,126.11 L 221.14,123.87 L 216.57,120.72 L 217.22,122.87 L 220.30,125.09 L 221.00,127.69 L 221.28,132.62 L 221.92,135.52 L 223.18,137.49 L 221.79,138.38 L 221.99,139.85 L 223.25,141.24 L 226.50,142.37 L 227.65,143.61 L 229.06,146.28 L 229.72,146.28 L 230.58,145.93 L 230.95,146.21 L 231.11,146.94 L 230.18,147.01 L 229.23,146.89 L 228.32,146.62 L 227.54,146.28 L 227.54,146.94 L 229.53,148.69 L 228.46,152.14 L 227.83,153.01 L 225.49,153.56 L 224.96,153.79 L 222.22,155.35 L 221.72,155.49 L 221.50,155.38 L 221.30,155.20 L 221.14,155.02 L 220.95,154.85 L 220.22,154.92 L 219.11,155.27 L 216.49,156.52 L 215.52,157.42 L 215.07,158.23 L 215.25,158.85 L 215.61,159.33 L 216.02,159.69 L 216.47,159.91 L 216.92,159.98 L 217.91,159.85 L 218.26,159.85 L 218.58,159.86 L 219.53,160.03 L 219.79,160.14 L 220.25,160.41 L 220.51,160.52 L 220.81,160.58 L 221.81,160.57 L 222.42,160.70 L 223.13,161.10 L 223.95,161.38 L 224.20,161.51 L 224.41,161.68 L 224.86,162.30 L 225.44,162.83 L 225.73,163.28 L 225.85,163.53 L 225.99,163.76 L 226.21,164.26 L 226.30,164.89 L 226.45,165.49 L 226.59,165.71 L 226.82,165.86 L 227.09,165.96 L 228.65,166.32 L 228.85,166.52 L 228.89,166.78 L 228.58,167.43 L 228.18,168.53 L 227.08,172.61 L 227.06,173.26 L 227.20,173.70 L 227.50,174.04 L 227.55,174.29 L 227.45,174.48 L 226.84,174.97 L 226.63,175.29 L 226.40,175.75 L 226.10,176.68 L 225.87,177.12 L 225.61,177.40 L 225.33,177.59 L 225.02,177.84 L 224.34,179.25 L 224.08,179.41 L 223.86,179.46 L 223.23,179.74 L 222.96,180.02 L 222.94,180.03 L 222.39,178.70 L 221.95,178.20 L 220.96,177.59 L 218.30,176.50 L 218.08,175.66 L 218.11,174.69 L 218.03,173.95 L 215.49,171.18 L 211.97,169.20 L 200.53,165.17 L 199.50,165.38 L 197.98,166.44 L 197.29,166.69 L 196.27,166.45 L 194.82,165.41 L 193.65,165.17 L 192.97,165.11 L 192.73,164.94 L 192.59,164.62 L 192.20,164.14 L 191.46,163.80 L 190.84,163.96 L 190.43,164.30 L 190.36,164.50 L 184.34,162.59 L 181.46,162.15 L 180.78,161.73 L 180.24,161.23 L 179.39,160.81 L 178.20,160.86 L 177.41,161.34 L 176.71,161.38 L 175.76,160.15 L 176.52,158.17 L 175.40,155.49 L 164.50,142.25 L 163.85,141.08 L 162.99,138.21 L 161.68,136.21 L 157.53,126.17 L 157.15,123.15 L 156.70,121.32 L 156.08,119.99 L 157.54,118.57 L 158.15,117.55 L 157.92,116.69 L 155.66,113.83 L 154.24,112.97 L 155.02,111.92 L 156.87,110.48 L 158.12,108.67 L 158.99,106.91 L 160.80,107.62 L 161.79,106.49 L 162.56,104.84 L 164.82,103.15 L 163.95,101.24 L 162.34,99.25 L 161.23,98.13 L 161.90,97.67 L 162.19,97.52 L 162.68,97.40 L 162.68,96.67 L 161.23,96.67 L 161.23,95.95 L 162.44,95.72 L 163.22,94.98 L 164.13,92.97 L 164.86,92.97 L 166.34,94.16 L 168.43,93.31 L 170.56,92.13 L 172.19,92.32 L 172.85,92.32 L 172.71,90.92 L 173.07,90.24 L 173.68,89.87 L 174.24,89.41 L 175.21,87.74 L 175.60,87.84 L 176.92,87.96 L 180.12,84.65 L 179.88,83.77 L 179.31,83.09 L 177.94,82.15 L 173.58,86.50 L 173.47,86.15 L 173.49,85.84 L 173.37,85.67 L 172.85,85.71 L 172.85,85.05 L 174.08,83.72 L 174.84,83.16 L 175.76,82.87 L 175.03,82.15 L 174.94,82.24 L 174.79,82.44 L 174.57,82.67 L 174.24,82.87 L 174.51,81.99 L 174.56,81.68 L 175.76,81.35 L 175.76,80.69 L 175.03,80.69 L 175.03,79.90 L 176.81,78.50 L 177.16,74.88 L 176.55,67.87 L 174.95,66.01 L 171.43,64.47 L 167.91,63.90 L 166.31,64.97 L 165.68,64.97 L 162.74,62.57 L 161.89,61.67 L 162.39,61.83 L 163.03,61.54 L 163.29,60.95 L 162.68,60.21 L 161.90,60.04 L 159.84,60.24 L 158.99,60.21 L 155.85,59.05 L 153.39,57.63 L 150.64,56.43 L 146.63,55.92 L 146.63,55.13 L 149.04,54.53 L 153.54,52.52 L 156.08,52.22 L 155.67,51.57 L 155.35,51.17 L 154.86,50.92 L 153.90,50.77 L 153.90,50.05 L 159.16,49.74 L 160.50,50.05 L 161.06,50.87 L 160.92,51.82 L 160.66,52.61 L 160.87,52.95 L 161.31,53.15 L 162.68,54.40 L 163.34,54.40 L 164.13,53.61 L 164.13,52.95 L 162.92,51.76 L 164.08,51.00 L 166.35,50.66 L 168.49,50.77 L 169.22,51.10 L 170.17,52.04 L 171.04,52.22 L 171.73,51.97 L 172.03,51.36 L 171.91,50.64 L 171.39,50.05 L 171.39,49.26 L 172.98,48.68 L 173.42,47.51 L 173.05,46.13 L 172.19,44.89 L 171.42,44.34 L 169.62,43.61 L 168.86,43.08 L 167.96,42.14 L 167.96,41.89 L 168.50,41.78 L 169.22,41.26 L 170.85,39.77 L 171.79,40.28 L 172.90,41.29 L 175.03,41.26 L 176.31,40.10 L 176.03,38.55 L 174.88,37.06 L 173.58,36.11 L 172.67,35.73 L 175.24,31.61 L 177.19,27.44 L 180.18,23.46 L 183.73,22.00 Z"/><path id="r-heredia" data-region="Heredia" d="M 368.70,73.95 L 369.10,73.71 L 371.28,71.20 L 378.34,68.55 L 378.89,68.42 L 379.21,68.66 L 380.43,68.99 L 380.76,69.12 L 381.01,69.28 L 381.26,69.45 L 381.79,69.97 L 382.20,70.45 L 382.49,70.96 L 382.55,71.31 L 382.56,71.69 L 382.25,73.82 L 382.29,74.34 L 382.38,74.71 L 382.71,75.12 L 383.07,75.48 L 383.48,75.82 L 384.40,76.38 L 384.80,76.71 L 385.06,77.01 L 385.29,77.35 L 385.30,77.53 L 385.19,77.63 L 384.70,77.47 L 384.32,77.44 L 383.91,77.45 L 382.79,77.73 L 379.69,77.99 L 379.07,78.12 L 377.96,78.49 L 376.15,79.64 L 375.09,80.77 L 374.67,81.09 L 373.64,81.62 L 372.74,82.19 L 372.34,82.54 L 372.17,82.73 L 371.99,83.36 L 371.85,84.32 L 371.70,87.57 L 371.77,88.57 L 371.17,93.13 L 371.19,93.76 L 371.29,94.01 L 371.45,94.23 L 371.78,94.63 L 371.93,94.85 L 372.06,95.10 L 372.10,95.41 L 372.09,95.76 L 371.99,96.63 L 372.01,96.99 L 372.07,97.31 L 372.50,98.36 L 372.55,98.65 L 372.55,99.18 L 371.95,101.41 L 370.99,102.85 L 370.56,103.29 L 370.36,103.45 L 370.12,103.58 L 369.82,103.66 L 369.54,103.69 L 369.30,103.80 L 369.09,104.05 L 368.23,105.68 L 367.93,106.11 L 367.56,106.87 L 367.48,107.33 L 367.41,107.96 L 367.65,109.51 L 367.79,109.92 L 369.21,112.52 L 369.53,113.68 L 369.73,114.22 L 370.01,114.64 L 370.34,115.05 L 370.47,115.29 L 370.49,115.82 L 370.40,116.57 L 370.05,118.09 L 369.96,119.38 L 370.01,119.68 L 369.89,120.26 L 369.60,121.03 L 368.29,123.77 L 367.96,124.28 L 362.96,129.58 L 359.02,129.99 L 356.96,132.61 L 356.31,133.27 L 355.80,133.45 L 353.44,133.63 L 351.39,134.07 L 346.69,134.43 L 346.16,134.63 L 346.24,135.16 L 346.62,136.01 L 349.06,139.59 L 350.47,141.08 L 350.74,141.94 L 350.92,144.49 L 351.79,145.43 L 352.30,145.88 L 352.65,146.25 L 352.75,147.03 L 352.11,149.14 L 350.78,152.66 L 348.70,153.89 L 345.89,154.78 L 344.79,154.98 L 342.06,154.76 L 341.57,154.79 L 337.65,156.54 L 336.44,156.03 L 334.35,154.98 L 332.48,155.30 L 332.29,154.37 L 332.28,153.80 L 332.30,153.50 L 332.37,153.18 L 332.90,152.34 L 334.86,150.29 L 334.88,150.02 L 336.11,133.90 L 336.29,119.29 L 336.44,107.11 L 336.68,89.98 L 336.95,67.30 L 336.97,66.85 L 337.90,66.99 L 339.18,66.78 L 341.15,68.68 L 342.38,69.14 L 343.60,68.23 L 344.33,68.23 L 345.62,69.47 L 348.26,67.80 L 350.08,68.23 L 351.34,66.98 L 352.77,66.75 L 353.95,67.53 L 354.43,69.35 L 360.85,74.34 L 361.57,74.68 L 362.56,74.83 L 363.60,74.63 L 365.08,73.61 L 365.80,73.37 L 368.70,73.95 Z"/><path id="r-lim-n" data-region="Limón" d="M 489.99,199.56 L 488.97,199.18 L 484.53,195.46 L 478.36,193.03 L 476.40,193.25 L 474.42,194.90 L 473.22,196.60 L 473.02,197.58 L 474.31,199.85 L 475.04,202.77 L 475.50,203.38 L 476.20,203.59 L 476.69,203.88 L 476.51,204.75 L 474.93,205.65 L 469.25,206.42 L 467.27,207.12 L 466.37,208.60 L 466.10,210.65 L 466.21,219.46 L 466.38,232.22 L 466.60,249.65 L 466.53,249.58 L 465.54,248.76 L 465.21,248.54 L 463.48,248.01 L 461.68,246.22 L 461.14,245.43 L 460.47,243.60 L 459.91,242.71 L 459.47,242.44 L 458.80,242.13 L 455.13,241.12 L 454.82,240.93 L 454.52,240.67 L 454.20,240.12 L 454.05,239.72 L 452.89,234.01 L 452.51,232.96 L 452.26,232.50 L 452.11,232.29 L 451.92,232.11 L 451.70,231.95 L 447.88,229.80 L 447.46,229.50 L 446.70,228.78 L 442.54,223.45 L 442.08,223.32 L 441.38,223.24 L 439.09,223.40 L 437.62,223.67 L 437.25,223.67 L 436.69,223.57 L 435.94,223.35 L 434.27,222.51 L 433.26,221.83 L 432.75,221.57 L 430.78,220.92 L 430.24,220.68 L 429.99,220.53 L 429.75,220.41 L 427.78,218.72 L 427.32,218.41 L 426.81,218.16 L 426.46,218.14 L 426.00,218.22 L 425.22,218.63 L 424.82,218.88 L 424.55,219.15 L 423.31,220.87 L 423.13,221.06 L 422.68,221.20 L 420.69,221.39 L 420.10,221.53 L 419.70,221.72 L 419.32,222.11 L 419.12,222.26 L 418.89,222.40 L 418.65,222.42 L 418.42,222.33 L 418.13,221.50 L 418.07,221.15 L 417.99,220.87 L 417.60,220.54 L 417.26,220.33 L 414.48,219.53 L 413.17,218.61 L 412.80,218.25 L 411.90,217.01 L 408.36,207.41 L 407.98,206.27 L 407.30,204.87 L 407.07,204.56 L 406.73,204.20 L 406.53,203.90 L 405.89,202.46 L 405.67,201.15 L 405.44,200.14 L 405.80,196.89 L 407.28,193.90 L 413.44,186.58 L 415.83,180.58 L 416.67,179.26 L 419.89,175.40 L 424.42,169.80 L 425.13,167.96 L 424.86,166.03 L 423.63,162.25 L 423.47,159.91 L 423.82,158.03 L 424.66,156.29 L 425.98,154.40 L 426.23,153.98 L 424.10,153.56 L 412.83,153.30 L 397.49,153.18 L 394.70,152.18 L 384.27,147.37 L 377.85,144.37 L 373.18,142.19 L 359.85,136.26 L 361.30,131.47 L 362.00,130.52 L 362.96,129.58 L 367.96,124.28 L 368.29,123.77 L 369.60,121.03 L 369.89,120.26 L 370.01,119.68 L 369.96,119.38 L 370.05,118.09 L 370.40,116.57 L 370.49,115.82 L 370.47,115.29 L 370.34,115.05 L 370.01,114.64 L 369.73,114.22 L 369.53,113.68 L 369.21,112.52 L 367.79,109.92 L 367.65,109.51 L 367.41,107.96 L 367.48,107.33 L 367.56,106.87 L 367.93,106.11 L 368.23,105.68 L 369.09,104.05 L 369.30,103.80 L 369.54,103.69 L 369.82,103.66 L 370.12,103.58 L 370.36,103.45 L 370.56,103.29 L 370.99,102.85 L 371.95,101.41 L 372.55,99.18 L 372.55,98.65 L 372.50,98.36 L 372.07,97.31 L 372.01,96.99 L 371.99,96.63 L 372.09,95.76 L 372.10,95.41 L 372.06,95.10 L 371.93,94.85 L 371.78,94.63 L 371.45,94.23 L 371.29,94.01 L 371.19,93.76 L 371.17,93.13 L 371.77,88.57 L 371.70,87.57 L 371.85,84.32 L 371.99,83.36 L 372.17,82.73 L 372.34,82.54 L 372.74,82.19 L 373.64,81.62 L 374.67,81.09 L 375.09,80.77 L 376.15,79.64 L 377.96,78.49 L 379.07,78.12 L 379.69,77.99 L 382.79,77.73 L 383.91,77.45 L 384.32,77.44 L 384.70,77.47 L 385.19,77.63 L 385.30,77.53 L 385.29,77.35 L 385.06,77.01 L 384.80,76.71 L 384.40,76.38 L 383.48,75.82 L 383.07,75.48 L 382.71,75.12 L 382.38,74.71 L 382.29,74.34 L 382.25,73.82 L 382.56,71.69 L 382.55,71.31 L 382.49,70.96 L 382.20,70.45 L 381.79,69.97 L 381.26,69.45 L 381.01,69.28 L 380.76,69.12 L 380.43,68.99 L 379.21,68.66 L 378.89,68.42 L 385.88,66.78 L 389.61,64.88 L 389.92,61.99 L 388.95,58.20 L 388.89,55.86 L 387.83,55.30 L 388.14,53.89 L 387.94,53.26 L 387.70,53.16 L 386.88,51.30 L 386.05,51.09 L 387.08,50.94 L 387.62,51.21 L 387.99,51.16 L 388.55,51.44 L 388.55,51.65 L 388.28,51.85 L 388.28,52.22 L 388.74,52.16 L 389.28,51.66 L 389.37,51.22 L 389.86,51.32 L 391.60,52.22 L 393.74,54.67 L 396.46,59.60 L 398.39,64.84 L 398.14,68.21 L 396.58,66.30 L 393.78,59.49 L 395.58,67.99 L 395.40,71.42 L 392.33,74.02 L 393.96,73.72 L 395.06,72.98 L 396.09,72.05 L 397.48,71.18 L 397.00,71.72 L 396.88,72.37 L 397.07,73.14 L 397.48,74.02 L 397.89,72.77 L 398.34,70.33 L 398.94,69.00 L 404.09,83.07 L 410.56,98.13 L 418.19,110.74 L 438.49,136.99 L 440.12,138.22 L 446.90,146.43 L 451.09,150.52 L 453.62,149.12 L 454.59,149.73 L 457.40,150.22 L 457.98,151.03 L 458.06,153.02 L 458.39,154.68 L 459.17,156.15 L 460.56,157.57 L 465.51,164.84 L 467.10,165.96 L 473.23,174.15 L 477.85,178.47 L 480.57,177.65 L 481.19,179.32 L 481.77,183.61 L 482.75,185.57 L 484.40,186.82 L 491.54,189.28 L 494.07,189.54 L 496.57,189.45 L 498.91,189.64 L 500.98,190.73 L 503.65,194.70 L 505.44,195.78 L 505.54,195.85 L 506.69,199.84 L 505.86,199.89 L 504.24,199.04 L 502.62,198.78 L 501.86,199.93 L 501.41,204.01 L 500.73,205.37 L 499.31,205.59 L 497.34,205.25 L 495.48,204.68 L 494.43,204.20 L 493.30,202.95 L 491.94,200.39 L 490.85,199.17 L 489.99,199.56 Z"/><path id="r-puntarenas" data-region="Puntarenas" d="M 466.60,249.65 L 466.62,250.82 L 469.80,249.50 L 470.78,249.50 L 471.52,250.04 L 471.91,250.85 L 472.21,251.68 L 472.68,252.34 L 473.30,252.70 L 475.70,253.76 L 480.58,257.34 L 485.42,258.97 L 486.86,259.92 L 489.61,264.51 L 490.03,265.51 L 489.95,265.65 L 488.49,268.02 L 485.30,269.94 L 474.33,274.40 L 473.09,275.28 L 472.05,276.64 L 472.56,277.13 L 473.40,277.65 L 473.39,279.09 L 472.39,280.24 L 469.23,282.19 L 468.37,283.11 L 468.24,284.70 L 468.76,286.21 L 469.71,287.61 L 473.05,291.32 L 474.83,293.80 L 476.15,296.55 L 477.00,299.78 L 477.62,307.20 L 477.31,310.94 L 476.31,314.08 L 473.96,316.95 L 471.18,318.31 L 468.17,319.23 L 465.12,320.79 L 460.41,325.25 L 455.56,327.96 L 454.62,328.71 L 454.50,330.04 L 455.48,331.08 L 458.46,332.82 L 459.02,333.42 L 460.05,334.93 L 460.64,335.40 L 461.32,335.43 L 462.60,334.93 L 463.57,335.06 L 465.43,336.03 L 466.16,337.12 L 466.65,340.50 L 472.26,352.70 L 471.73,357.45 L 471.06,359.88 L 469.61,358.75 L 469.78,357.13 L 470.58,355.33 L 471.06,353.70 L 470.77,352.40 L 463.52,340.04 L 460.96,337.35 L 447.73,327.81 L 444.11,324.28 L 447.24,320.49 L 447.82,320.18 L 448.41,319.09 L 449.57,317.68 L 450.31,316.04 L 449.63,314.34 L 446.15,310.03 L 445.57,308.82 L 445.51,307.25 L 446.27,306.70 L 447.60,306.31 L 449.27,305.26 L 448.01,304.86 L 444.91,305.02 L 443.39,304.46 L 442.59,303.59 L 440.48,299.44 L 440.83,298.89 L 441.00,298.52 L 441.20,297.92 L 441.93,297.92 L 442.96,299.65 L 443.27,300.49 L 443.39,301.92 L 443.85,302.16 L 447.02,300.90 L 447.02,300.10 L 445.56,299.49 L 444.02,298.36 L 442.71,297.00 L 441.93,295.74 L 441.20,295.74 L 440.40,297.05 L 438.46,297.13 L 436.25,296.87 L 434.60,297.19 L 433.82,295.77 L 432.57,294.27 L 431.10,293.51 L 429.59,294.29 L 426.21,292.32 L 425.23,290.73 L 425.89,288.48 L 425.16,288.43 L 424.43,288.48 L 424.87,286.74 L 423.37,285.90 L 421.12,285.44 L 419.34,284.85 L 418.72,286.10 L 418.16,286.01 L 417.45,285.50 L 416.38,285.50 L 415.87,286.08 L 415.74,286.82 L 415.30,287.47 L 413.86,287.75 L 410.34,287.23 L 408.91,287.75 L 408.38,289.86 L 409.18,289.25 L 409.17,289.21 L 409.83,289.21 L 413.57,294.79 L 414.06,296.48 L 416.25,299.89 L 417.10,300.90 L 418.50,301.61 L 422.47,302.81 L 424.07,303.01 L 425.53,303.88 L 426.93,305.57 L 428.28,306.71 L 429.59,305.92 L 429.64,308.54 L 429.43,309.62 L 428.79,310.34 L 428.79,311.07 L 430.39,313.25 L 431.04,316.97 L 430.76,320.84 L 429.59,323.49 L 427.20,323.57 L 423.30,322.33 L 419.64,320.57 L 417.90,319.13 L 418.55,319.13 L 419.03,319.51 L 419.42,319.68 L 420.86,319.85 L 418.81,318.94 L 417.98,318.39 L 417.10,317.61 L 417.10,319.13 L 410.96,316.47 L 408.78,316.16 L 402.26,316.94 L 400.46,316.95 L 398.92,316.22 L 397.50,314.78 L 394.91,311.43 L 385.66,302.88 L 385.06,301.92 L 384.60,301.80 L 382.43,300.92 L 381.76,300.50 L 381.43,297.19 L 384.67,292.24 L 385.43,291.38 L 387.10,290.40 L 388.24,289.96 L 388.76,290.27 L 389.10,290.90 L 389.84,290.17 L 392.43,286.24 L 393.13,285.50 L 391.79,283.82 L 393.40,281.91 L 396.32,280.36 L 398.94,279.69 L 398.94,279.04 L 396.63,278.76 L 395.48,278.87 L 394.68,279.50 L 393.45,280.81 L 392.21,281.40 L 391.79,280.37 L 392.30,278.57 L 393.79,276.79 L 396.42,275.52 L 397.64,274.68 L 398.14,273.48 L 397.48,272.41 L 396.10,271.66 L 394.84,270.65 L 394.58,268.80 L 396.64,269.84 L 397.63,270.15 L 398.94,270.18 L 398.30,269.41 L 397.49,268.81 L 395.96,268.00 L 395.31,267.47 L 394.94,266.98 L 394.38,266.64 L 393.13,266.55 L 394.42,265.78 L 394.23,265.22 L 393.49,264.80 L 393.13,264.43 L 393.61,263.27 L 394.15,262.40 L 394.90,261.62 L 395.96,260.74 L 393.14,253.40 L 392.62,252.47 L 390.88,250.57 L 390.15,251.29 L 387.76,248.21 L 385.58,244.62 L 382.79,241.81 L 378.53,241.05 L 378.78,238.31 L 376.43,235.96 L 373.22,234.34 L 370.83,233.72 L 362.47,225.80 L 354.28,222.02 L 352.97,221.01 L 342.73,217.02 L 342.07,217.02 L 341.38,217.52 L 340.78,217.51 L 340.28,217.06 L 339.88,216.23 L 338.43,216.85 L 337.56,216.16 L 336.57,215.16 L 334.74,214.84 L 335.88,212.87 L 334.36,210.11 L 331.58,207.68 L 328.92,206.78 L 328.92,207.50 L 329.86,207.68 L 330.49,207.94 L 331.90,208.96 L 329.13,208.48 L 324.74,205.92 L 321.95,205.33 L 319.26,205.12 L 305.03,201.19 L 302.31,200.97 L 301.03,201.19 L 299.67,201.62 L 298.25,201.90 L 296.82,201.69 L 295.58,200.65 L 295.16,199.40 L 294.65,198.38 L 293.20,198.06 L 293.47,198.49 L 293.62,198.81 L 293.85,199.58 L 292.09,198.17 L 288.15,195.65 L 287.38,194.07 L 287.00,192.60 L 286.07,191.90 L 284.89,191.43 L 283.74,190.73 L 283.38,189.65 L 283.53,188.54 L 283.24,187.82 L 281.57,187.89 L 281.99,186.68 L 281.87,185.52 L 281.60,184.43 L 281.57,183.47 L 282.20,182.27 L 284.03,180.46 L 284.75,178.66 L 285.50,177.77 L 286.25,176.61 L 286.59,175.07 L 286.23,173.80 L 285.40,172.70 L 283.74,171.05 L 279.44,164.71 L 278.24,163.78 L 276.51,163.05 L 276.74,161.43 L 278.24,158.99 L 275.62,156.86 L 275.14,155.83 L 275.69,154.27 L 272.64,153.34 L 263.21,154.27 L 263.21,153.48 L 264.51,152.97 L 266.19,152.79 L 269.88,152.81 L 269.88,152.09 L 266.49,151.93 L 263.46,151.39 L 260.73,150.47 L 258.19,149.12 L 254.98,146.48 L 254.49,145.91 L 253.80,145.76 L 252.45,144.85 L 251.50,143.85 L 252.01,143.37 L 250.23,142.46 L 245.86,138.41 L 243.54,137.27 L 242.44,136.27 L 241.77,136.04 L 241.24,136.28 L 240.78,136.68 L 240.18,136.77 L 239.24,136.04 L 239.86,134.91 L 240.07,134.19 L 240.05,134.17 L 240.07,134.17 L 242.20,133.53 L 243.07,133.55 L 243.40,133.60 L 243.74,133.62 L 244.41,133.55 L 245.01,133.43 L 245.30,133.43 L 245.58,133.49 L 245.82,133.60 L 246.22,133.93 L 246.44,134.09 L 246.69,134.19 L 246.97,134.26 L 247.23,134.24 L 247.40,134.21 L 247.94,134.04 L 248.37,133.98 L 248.71,134.00 L 249.02,134.06 L 249.55,134.26 L 250.53,134.79 L 250.75,134.95 L 251.54,135.63 L 252.84,137.25 L 253.23,137.63 L 254.06,138.26 L 255.05,138.78 L 255.32,138.87 L 255.61,138.94 L 255.87,138.92 L 256.03,138.75 L 255.98,138.34 L 255.58,137.21 L 255.46,136.60 L 255.47,136.27 L 255.56,135.62 L 255.85,135.14 L 256.35,134.54 L 258.27,132.87 L 258.73,132.57 L 260.77,131.69 L 260.99,131.41 L 261.17,131.05 L 261.23,130.28 L 261.15,129.88 L 261.00,129.57 L 260.67,129.18 L 260.52,128.96 L 260.42,128.73 L 260.33,128.47 L 260.34,128.18 L 260.43,127.82 L 261.08,126.48 L 261.19,126.16 L 261.43,124.11 L 261.93,122.71 L 261.98,122.42 L 261.94,122.14 L 261.86,121.86 L 261.72,121.65 L 260.94,120.94 L 260.78,120.73 L 260.66,120.50 L 260.60,120.21 L 260.60,119.90 L 260.67,119.59 L 260.86,119.22 L 261.15,118.80 L 261.62,118.32 L 262.26,117.89 L 263.22,117.40 L 263.62,117.07 L 264.54,116.10 L 265.17,115.67 L 265.52,115.55 L 265.98,115.46 L 266.78,115.43 L 267.31,115.46 L 267.92,115.66 L 268.39,115.86 L 270.05,117.20 L 272.43,120.95 L 273.11,121.76 L 273.31,121.92 L 274.00,122.37 L 274.59,122.41 L 275.47,122.37 L 277.49,122.01 L 278.95,121.59 L 279.65,121.18 L 279.89,121.07 L 280.17,120.97 L 280.98,121.09 L 282.88,122.31 L 283.47,123.96 L 283.90,124.56 L 284.54,125.05 L 284.71,125.24 L 284.75,125.63 L 284.63,126.17 L 283.50,128.20 L 283.18,128.99 L 282.57,131.38 L 282.57,131.77 L 282.66,132.20 L 283.25,133.27 L 283.36,133.86 L 283.40,134.26 L 283.00,136.94 L 283.48,138.64 L 284.66,141.04 L 285.28,142.00 L 287.03,144.13 L 287.88,145.52 L 289.62,147.58 L 290.29,148.61 L 290.35,148.86 L 290.50,149.19 L 290.60,149.34 L 290.83,149.41 L 291.18,149.42 L 292.00,149.19 L 292.84,148.55 L 293.10,148.44 L 293.87,148.80 L 295.22,150.99 L 295.14,151.78 L 295.04,152.02 L 294.69,152.33 L 294.17,152.61 L 292.49,153.27 L 287.26,156.65 L 286.08,157.00 L 285.26,157.79 L 283.29,160.85 L 282.54,161.18 L 282.37,161.34 L 282.19,161.58 L 282.14,161.87 L 282.14,162.50 L 281.99,163.06 L 282.35,163.45 L 283.08,163.96 L 285.30,164.84 L 287.06,165.31 L 288.45,165.39 L 289.72,165.64 L 290.68,166.38 L 292.99,169.43 L 292.04,170.19 L 293.05,170.65 L 293.82,171.06 L 294.24,171.38 L 294.64,171.75 L 294.82,171.95 L 295.44,172.80 L 295.96,173.78 L 296.04,174.19 L 296.10,174.78 L 295.94,175.66 L 295.77,176.08 L 295.56,176.35 L 295.35,176.50 L 295.09,176.61 L 294.80,176.68 L 294.47,176.72 L 292.43,176.61 L 291.80,176.68 L 291.50,176.77 L 291.25,176.91 L 291.04,177.07 L 290.90,177.29 L 290.81,177.54 L 290.80,177.83 L 290.83,178.11 L 291.65,180.80 L 291.91,182.08 L 291.83,184.13 L 291.86,184.46 L 292.12,185.09 L 294.48,189.20 L 294.56,189.44 L 295.26,192.98 L 295.55,193.77 L 296.02,194.76 L 296.68,195.65 L 297.44,196.35 L 297.77,196.58 L 298.87,196.72 L 302.15,196.18 L 302.91,196.49 L 303.17,196.52 L 303.60,196.52 L 305.26,196.09 L 305.58,196.08 L 305.91,196.12 L 306.16,196.23 L 306.40,196.38 L 306.90,196.95 L 307.10,197.13 L 307.34,197.26 L 307.60,197.35 L 307.91,197.38 L 308.20,197.34 L 308.53,197.19 L 308.82,196.93 L 309.46,195.64 L 309.61,195.42 L 309.90,195.15 L 311.10,194.19 L 311.48,193.83 L 311.71,193.51 L 311.81,193.24 L 311.87,192.60 L 311.50,190.50 L 311.52,190.23 L 311.78,190.05 L 312.39,189.93 L 313.63,189.95 L 316.42,189.42 L 320.97,189.19 L 322.55,189.33 L 323.10,189.84 L 323.52,190.13 L 324.23,191.02 L 324.40,191.18 L 325.53,191.38 L 329.32,191.28 L 330.71,191.88 L 332.30,192.01 L 337.06,191.59 L 338.02,191.70 L 338.27,191.78 L 338.63,192.08 L 338.92,192.54 L 339.15,193.38 L 339.18,193.87 L 339.14,194.29 L 338.94,195.18 L 338.88,195.86 L 338.91,196.19 L 339.09,196.58 L 339.46,197.02 L 340.27,197.74 L 341.09,198.04 L 341.58,198.14 L 342.55,197.97 L 343.93,197.94 L 344.90,198.09 L 345.45,198.28 L 345.70,198.44 L 345.94,198.83 L 346.16,199.41 L 346.38,200.74 L 346.37,201.37 L 346.29,201.83 L 346.01,202.31 L 345.79,202.84 L 346.19,203.50 L 348.50,204.54 L 350.24,207.85 L 352.67,210.19 L 359.64,214.79 L 361.28,215.31 L 361.42,215.07 L 361.60,214.88 L 361.79,214.71 L 362.02,214.57 L 362.26,214.46 L 362.53,214.37 L 362.83,214.33 L 363.16,214.33 L 363.46,214.38 L 363.79,214.63 L 364.14,215.00 L 364.90,216.35 L 365.06,216.77 L 365.51,218.83 L 365.62,219.09 L 369.06,222.55 L 369.77,223.47 L 370.15,224.15 L 370.01,225.20 L 370.03,225.84 L 370.20,227.02 L 370.88,229.16 L 371.40,230.19 L 371.68,230.62 L 372.08,231.07 L 372.81,231.72 L 378.10,234.08 L 378.89,234.29 L 379.19,234.25 L 379.46,234.16 L 379.65,234.01 L 379.83,233.81 L 380.77,232.53 L 380.96,232.38 L 381.21,232.25 L 381.49,232.14 L 381.80,232.05 L 382.15,232.00 L 382.43,232.00 L 382.73,232.05 L 383.02,232.14 L 384.05,232.63 L 385.53,234.03 L 387.95,236.99 L 388.33,237.62 L 388.36,237.91 L 388.42,238.18 L 389.22,240.92 L 389.34,241.15 L 389.62,241.56 L 390.35,242.41 L 400.01,248.61 L 400.25,248.72 L 401.41,248.64 L 402.31,248.51 L 402.59,248.51 L 402.96,248.54 L 403.22,248.64 L 403.68,248.97 L 404.15,249.54 L 404.33,249.71 L 404.80,249.99 L 405.10,250.07 L 405.38,250.13 L 405.66,250.11 L 405.91,250.03 L 406.13,249.90 L 406.32,249.70 L 407.47,248.11 L 407.85,247.75 L 408.19,247.53 L 408.42,247.42 L 408.64,247.28 L 408.85,247.09 L 408.99,246.71 L 409.06,246.15 L 408.76,243.71 L 408.82,243.25 L 409.00,242.72 L 409.81,241.23 L 410.02,240.57 L 409.95,239.31 L 409.82,238.71 L 409.66,238.28 L 409.52,238.06 L 409.44,237.78 L 409.32,237.55 L 409.14,237.41 L 408.86,237.41 L 408.59,237.46 L 408.30,237.46 L 408.06,237.37 L 407.85,237.22 L 407.69,237.03 L 407.49,236.85 L 407.25,236.73 L 406.32,236.55 L 406.09,236.41 L 405.96,236.20 L 405.94,235.92 L 406.98,230.55 L 407.07,230.28 L 407.42,229.76 L 410.33,226.52 L 410.57,226.10 L 410.84,225.49 L 411.56,222.90 L 411.86,222.35 L 412.15,221.95 L 414.48,219.53 L 417.26,220.33 L 417.60,220.54 L 417.99,220.87 L 418.07,221.15 L 418.13,221.50 L 418.42,222.33 L 418.65,222.42 L 418.89,222.40 L 419.12,222.26 L 419.32,222.11 L 419.70,221.72 L 420.10,221.53 L 420.69,221.39 L 422.68,221.20 L 423.13,221.06 L 423.31,220.87 L 424.55,219.15 L 424.82,218.88 L 425.22,218.63 L 426.00,218.22 L 426.46,218.14 L 426.81,218.16 L 427.32,218.41 L 427.78,218.72 L 429.75,220.41 L 429.99,220.53 L 430.24,220.68 L 430.78,220.92 L 432.75,221.57 L 433.26,221.83 L 434.27,222.51 L 435.94,223.35 L 436.69,223.57 L 437.25,223.67 L 437.62,223.67 L 439.09,223.40 L 441.38,223.24 L 442.08,223.32 L 442.54,223.45 L 446.70,228.78 L 447.46,229.50 L 447.88,229.80 L 451.70,231.95 L 451.92,232.11 L 452.11,232.29 L 452.26,232.50 L 452.51,232.96 L 452.89,234.01 L 454.05,239.72 L 454.20,240.12 L 454.52,240.67 L 454.82,240.93 L 455.13,241.12 L 458.80,242.13 L 459.47,242.44 L 459.91,242.71 L 460.47,243.60 L 461.14,245.43 L 461.68,246.22 L 463.48,248.01 L 465.21,248.54 L 465.54,248.76 L 466.53,249.58 L 466.60,249.65 Z M 229.53,148.69 L 231.97,150.82 L 238.42,153.42 L 239.24,153.87 L 239.99,153.58 L 241.69,154.27 L 245.80,156.61 L 247.70,157.21 L 249.73,157.27 L 251.65,156.45 L 252.90,157.44 L 255.58,159.11 L 256.80,160.15 L 256.80,160.81 L 254.68,161.32 L 254.78,162.85 L 256.06,164.63 L 257.46,165.96 L 256.59,166.25 L 255.78,166.83 L 254.49,168.14 L 256.06,168.84 L 257.92,169.05 L 261.75,168.93 L 261.75,169.59 L 260.25,170.59 L 258.35,171.39 L 256.71,172.48 L 256.01,174.35 L 255.61,174.78 L 253.10,176.20 L 252.63,176.98 L 252.08,178.94 L 251.65,179.76 L 248.31,178.13 L 246.54,177.98 L 245.77,179.40 L 246.24,180.27 L 247.88,182.33 L 247.62,182.74 L 244.17,184.41 L 243.59,184.55 L 243.20,185.09 L 240.68,186.37 L 240.16,187.21 L 237.84,194.53 L 236.86,196.39 L 235.59,198.06 L 234.81,198.06 L 231.83,191.97 L 222.96,180.08 L 222.94,180.03 L 222.96,180.02 L 223.23,179.74 L 223.86,179.46 L 224.08,179.41 L 224.34,179.25 L 225.02,177.84 L 225.33,177.59 L 225.61,177.40 L 225.87,177.12 L 226.10,176.68 L 226.40,175.75 L 226.63,175.29 L 226.84,174.97 L 227.45,174.48 L 227.55,174.29 L 227.50,174.04 L 227.20,173.70 L 227.06,173.26 L 227.08,172.61 L 228.18,168.53 L 228.58,167.43 L 228.89,166.78 L 228.85,166.52 L 228.65,166.32 L 227.09,165.96 L 226.82,165.86 L 226.59,165.71 L 226.45,165.49 L 226.30,164.89 L 226.21,164.26 L 225.99,163.76 L 225.85,163.53 L 225.73,163.28 L 225.44,162.83 L 224.86,162.30 L 224.41,161.68 L 224.20,161.51 L 223.95,161.38 L 223.13,161.10 L 222.42,160.70 L 221.81,160.57 L 220.81,160.58 L 220.51,160.52 L 220.25,160.41 L 219.79,160.14 L 219.53,160.03 L 218.58,159.86 L 218.26,159.85 L 217.91,159.85 L 216.92,159.98 L 216.47,159.91 L 216.02,159.69 L 215.61,159.33 L 215.25,158.85 L 215.07,158.23 L 215.52,157.42 L 216.49,156.52 L 219.11,155.27 L 220.22,154.92 L 220.95,154.85 L 221.14,155.02 L 221.30,155.20 L 221.50,155.38 L 221.72,155.49 L 222.22,155.35 L 224.96,153.79 L 225.49,153.56 L 227.83,153.01 L 228.46,152.14 L 229.53,148.69 Z M 233.37,140.25 L 234.41,140.50 L 235.00,140.99 L 235.86,141.22 L 236.99,141.19 L 236.99,141.85 L 235.69,142.31 L 234.06,142.70 L 232.25,142.86 L 230.45,142.65 L 228.60,141.89 L 227.63,140.92 L 226.16,138.22 L 228.16,137.56 L 229.06,137.49 L 232.45,138.07 L 235.59,139.01 L 235.59,139.74 L 231.90,139.74 L 232.91,140.27 L 233.37,140.25 Z M 23.98,627.90 L 22.00,628.00 L 23.39,625.62 L 24.68,624.64 L 26.17,623.74 L 27.65,623.45 L 27.65,624.54 L 27.55,625.92 L 26.17,627.41 L 23.98,627.90 Z M 364.76,288.40 L 366.16,287.70 L 367.68,287.64 L 367.56,288.90 L 366.73,289.21 L 365.39,288.96 L 364.76,288.40 Z"/><path id="r-san-jos" data-region="San José" d="M 344.79,154.98 L 345.89,154.78 L 348.70,153.89 L 350.78,152.66 L 352.11,149.14 L 352.75,147.03 L 352.65,146.25 L 352.30,145.88 L 351.79,145.43 L 350.92,144.49 L 350.74,141.94 L 350.47,141.08 L 349.06,139.59 L 346.62,136.01 L 346.24,135.16 L 346.16,134.63 L 346.69,134.43 L 351.39,134.07 L 353.44,133.63 L 355.80,133.45 L 356.31,133.27 L 356.96,132.61 L 359.02,129.99 L 362.96,129.58 L 362.00,130.52 L 361.30,131.47 L 359.85,136.26 L 361.35,141.31 L 361.59,141.74 L 361.99,142.22 L 362.92,143.03 L 363.82,143.66 L 364.31,143.91 L 364.52,144.06 L 366.65,146.44 L 367.05,147.04 L 367.34,147.98 L 367.54,150.75 L 368.02,153.09 L 367.78,153.96 L 367.46,154.38 L 367.06,154.73 L 366.46,154.94 L 365.18,155.09 L 363.84,156.54 L 363.49,156.65 L 363.10,156.73 L 362.78,156.64 L 362.53,156.51 L 361.56,156.36 L 358.76,156.39 L 358.66,156.45 L 353.76,158.17 L 350.95,162.76 L 350.77,163.63 L 350.95,163.77 L 351.35,164.00 L 353.48,164.92 L 350.41,169.83 L 349.62,170.68 L 348.30,171.57 L 346.43,173.24 L 345.72,174.40 L 345.39,175.08 L 345.32,175.55 L 345.33,175.88 L 345.38,176.18 L 345.50,176.44 L 345.66,176.64 L 345.89,176.76 L 346.19,176.77 L 346.50,176.74 L 347.79,176.24 L 348.65,176.02 L 348.97,175.99 L 349.60,176.08 L 350.21,176.22 L 354.14,175.35 L 355.02,175.47 L 355.25,176.49 L 355.47,177.00 L 355.66,177.54 L 356.36,178.83 L 358.42,179.50 L 359.00,180.01 L 359.06,180.25 L 359.10,180.46 L 360.04,182.03 L 362.40,185.06 L 362.97,185.57 L 363.27,185.65 L 364.57,186.11 L 366.76,187.19 L 367.29,187.31 L 367.55,187.22 L 367.78,187.08 L 368.09,186.93 L 368.53,186.86 L 369.38,186.95 L 369.82,187.10 L 370.13,187.31 L 370.30,187.52 L 371.10,188.83 L 371.83,190.34 L 371.90,190.61 L 372.11,191.10 L 372.56,191.95 L 373.09,192.78 L 373.45,193.18 L 373.77,193.44 L 374.06,193.54 L 376.40,194.03 L 376.91,193.99 L 378.95,193.77 L 380.15,195.42 L 380.43,195.64 L 380.96,195.97 L 382.57,196.51 L 383.04,196.79 L 383.33,197.06 L 383.44,197.33 L 383.76,198.46 L 383.99,199.87 L 384.17,200.03 L 384.40,200.05 L 385.88,199.33 L 386.41,199.14 L 386.72,199.07 L 387.95,199.19 L 388.31,199.17 L 388.63,199.14 L 388.92,199.06 L 389.20,198.96 L 389.43,198.84 L 389.63,198.70 L 389.83,198.53 L 389.99,198.32 L 390.52,197.37 L 390.94,196.90 L 392.20,196.52 L 394.92,199.33 L 395.84,200.09 L 396.89,200.59 L 397.16,200.68 L 408.36,207.41 L 411.90,217.01 L 412.80,218.25 L 413.17,218.61 L 414.48,219.53 L 412.15,221.95 L 411.86,222.35 L 411.56,222.90 L 410.84,225.49 L 410.57,226.10 L 410.33,226.52 L 407.42,229.76 L 407.07,230.28 L 406.98,230.55 L 405.94,235.92 L 405.96,236.20 L 406.09,236.41 L 406.32,236.55 L 407.25,236.73 L 407.49,236.85 L 407.69,237.03 L 407.85,237.22 L 408.06,237.37 L 408.30,237.46 L 408.59,237.46 L 408.86,237.41 L 409.14,237.41 L 409.32,237.55 L 409.44,237.78 L 409.52,238.06 L 409.66,238.28 L 409.82,238.71 L 409.95,239.31 L 410.02,240.57 L 409.81,241.23 L 409.00,242.72 L 408.82,243.25 L 408.76,243.71 L 409.06,246.15 L 408.99,246.71 L 408.85,247.09 L 408.64,247.28 L 408.42,247.42 L 408.19,247.53 L 407.85,247.75 L 407.47,248.11 L 406.32,249.70 L 406.13,249.90 L 405.91,250.03 L 405.66,250.11 L 405.38,250.13 L 405.10,250.07 L 404.80,249.99 L 404.33,249.71 L 404.15,249.54 L 403.68,248.97 L 403.22,248.64 L 402.96,248.54 L 402.59,248.51 L 402.31,248.51 L 401.41,248.64 L 400.25,248.72 L 400.01,248.61 L 390.35,242.41 L 389.62,241.56 L 389.34,241.15 L 389.22,240.92 L 388.42,238.18 L 388.36,237.91 L 388.33,237.62 L 387.95,236.99 L 385.53,234.03 L 384.05,232.63 L 383.02,232.14 L 382.73,232.05 L 382.43,232.00 L 382.15,232.00 L 381.80,232.05 L 381.49,232.14 L 381.21,232.25 L 380.96,232.38 L 380.77,232.53 L 379.83,233.81 L 379.65,234.01 L 379.46,234.16 L 379.19,234.25 L 378.89,234.29 L 378.10,234.08 L 372.81,231.72 L 372.08,231.07 L 371.68,230.62 L 371.40,230.19 L 370.88,229.16 L 370.20,227.02 L 370.03,225.84 L 370.01,225.20 L 370.15,224.15 L 369.77,223.47 L 369.06,222.55 L 365.62,219.09 L 365.51,218.83 L 365.06,216.77 L 364.90,216.35 L 364.14,215.00 L 363.79,214.63 L 363.46,214.38 L 363.16,214.33 L 362.83,214.33 L 362.53,214.37 L 362.26,214.46 L 362.02,214.57 L 361.79,214.71 L 361.60,214.88 L 361.42,215.07 L 361.28,215.31 L 359.64,214.79 L 352.67,210.19 L 350.24,207.85 L 348.50,204.54 L 346.19,203.50 L 345.79,202.84 L 346.01,202.31 L 346.29,201.83 L 346.37,201.37 L 346.38,200.74 L 346.16,199.41 L 345.94,198.83 L 345.70,198.44 L 345.45,198.28 L 344.90,198.09 L 343.93,197.94 L 342.55,197.97 L 341.58,198.14 L 341.09,198.04 L 340.27,197.74 L 339.46,197.02 L 339.09,196.58 L 338.91,196.19 L 338.88,195.86 L 338.94,195.18 L 339.14,194.29 L 339.18,193.87 L 339.15,193.38 L 338.92,192.54 L 338.63,192.08 L 338.27,191.78 L 338.02,191.70 L 337.06,191.59 L 332.30,192.01 L 330.71,191.88 L 329.32,191.28 L 325.53,191.38 L 324.40,191.18 L 324.23,191.02 L 323.52,190.13 L 323.10,189.84 L 322.55,189.33 L 320.97,189.19 L 316.42,189.42 L 313.63,189.95 L 312.39,189.93 L 311.78,190.05 L 311.52,190.23 L 311.50,190.50 L 311.87,192.60 L 311.81,193.24 L 311.71,193.51 L 311.48,193.83 L 311.10,194.19 L 309.90,195.15 L 309.61,195.42 L 309.46,195.64 L 308.82,196.93 L 308.53,197.19 L 308.20,197.34 L 307.91,197.38 L 307.60,197.35 L 307.34,197.26 L 307.10,197.13 L 306.90,196.95 L 306.40,196.38 L 306.16,196.23 L 305.91,196.12 L 305.58,196.08 L 305.26,196.09 L 303.60,196.52 L 303.17,196.52 L 302.91,196.49 L 302.15,196.18 L 298.87,196.72 L 297.77,196.58 L 297.44,196.35 L 296.68,195.65 L 296.02,194.76 L 295.55,193.77 L 295.26,192.98 L 294.56,189.44 L 294.48,189.20 L 292.12,185.09 L 291.86,184.46 L 291.83,184.13 L 291.91,182.08 L 291.65,180.80 L 290.83,178.11 L 290.80,177.83 L 290.81,177.54 L 290.90,177.29 L 291.04,177.07 L 291.25,176.91 L 291.50,176.77 L 291.80,176.68 L 292.43,176.61 L 294.47,176.72 L 294.80,176.68 L 295.09,176.61 L 295.35,176.50 L 295.56,176.35 L 295.77,176.08 L 295.94,175.66 L 296.10,174.78 L 296.04,174.19 L 295.96,173.78 L 295.44,172.80 L 294.82,171.95 L 294.64,171.75 L 294.24,171.38 L 293.82,171.06 L 293.05,170.65 L 292.04,170.19 L 292.99,169.43 L 293.76,169.40 L 293.94,169.21 L 294.08,168.40 L 294.25,168.00 L 296.22,165.58 L 296.27,165.23 L 296.24,164.96 L 296.55,164.59 L 297.25,164.07 L 299.08,163.12 L 300.32,161.91 L 300.45,161.66 L 300.56,161.51 L 301.42,160.98 L 304.70,159.55 L 309.43,159.16 L 312.03,158.66 L 314.09,159.25 L 316.20,159.59 L 316.60,159.72 L 317.12,159.85 L 318.39,159.99 L 318.95,160.16 L 320.85,159.90 L 327.96,157.93 L 330.91,156.98 L 332.48,155.30 L 334.35,154.98 L 336.44,156.03 L 337.65,156.54 L 341.57,154.79 L 342.06,154.76 L 344.79,154.98 Z"/></g></svg>