<svg xmlns="http://www.w3.org/2000/svg" viewBox="0 0 1000 650" role="img" aria-label="SY first-level administrative map"><g fill="#e2e3e5" stroke="#fff" stroke-width="1.5" stroke-linejoin="round"><path id="r-aleppo" data-region="Aleppo" d="M 324.39,72.36 L 332.32,73.17 L 355.30,78.73 L 361.28,81.39 L 374.07,92.23 L 375.64,97.66 L 375.72,98.11 L 375.66,98.72 L 375.42,99.43 L 374.72,100.52 L 374.16,101.00 L 373.56,101.26 L 367.48,101.95 L 366.99,102.07 L 366.58,102.27 L 366.43,102.95 L 366.53,103.98 L 367.14,106.12 L 367.58,107.11 L 367.97,107.77 L 368.36,108.01 L 368.79,108.16 L 369.32,108.18 L 369.84,108.14 L 370.82,107.85 L 372.02,107.19 L 374.95,105.11 L 375.81,104.73 L 376.32,104.63 L 376.82,104.66 L 377.34,104.79 L 377.73,105.04 L 378.03,105.35 L 378.20,105.73 L 378.33,106.14 L 378.40,106.60 L 378.22,114.72 L 377.67,118.13 L 376.77,121.62 L 376.77,121.69 L 376.77,121.71 L 375.83,125.82 L 375.06,127.90 L 373.62,130.28 L 369.02,135.89 L 367.93,136.88 L 366.49,137.95 L 358.55,142.47 L 348.68,146.89 L 328.66,149.57 L 324.14,149.71 L 320.80,150.40 L 315.81,152.47 L 313.80,153.38 L 313.13,153.83 L 311.80,154.98 L 310.50,156.45 L 309.39,158.16 L 307.89,161.00 L 305.25,164.34 L 304.78,165.16 L 304.50,165.99 L 304.33,166.87 L 304.50,168.36 L 304.99,170.30 L 306.47,173.90 L 307.55,175.64 L 308.66,176.85 L 310.41,178.29 L 312.00,179.95 L 313.54,182.13 L 313.61,182.20 L 318.46,185.46 L 318.89,186.04 L 319.06,186.73 L 318.87,187.99 L 318.68,188.60 L 318.44,189.12 L 318.23,189.44 L 317.69,190.89 L 316.85,192.58 L 316.58,192.94 L 315.96,193.57 L 313.56,195.55 L 308.94,200.98 L 308.60,201.27 L 308.00,201.92 L 306.94,203.37 L 303.54,210.11 L 300.46,221.08 L 299.79,225.37 L 299.79,225.95 L 299.86,226.57 L 300.11,227.36 L 300.37,227.88 L 300.65,228.31 L 302.43,230.19 L 325.66,250.41 L 274.12,250.52 L 263.88,249.28 L 258.45,247.97 L 256.41,247.23 L 248.38,242.64 L 248.32,242.60 L 246.00,241.28 L 226.13,242.46 L 219.09,242.39 L 218.21,242.17 L 217.16,241.75 L 212.82,239.37 L 202.53,236.43 L 197.48,234.72 L 196.86,234.38 L 195.04,232.91 L 194.28,232.46 L 193.61,232.15 L 192.62,231.87 L 192.00,231.58 L 188.19,227.87 L 187.51,227.04 L 187.06,224.88 L 186.72,224.07 L 185.92,223.15 L 184.85,221.39 L 183.09,216.82 L 183.71,215.97 L 184.46,215.48 L 185.82,215.00 L 186.24,214.79 L 186.99,214.28 L 187.57,213.77 L 187.99,213.34 L 188.44,212.63 L 188.59,212.16 L 188.66,211.67 L 188.64,211.19 L 188.57,210.75 L 188.21,210.25 L 187.61,209.71 L 184.10,207.72 L 181.66,205.80 L 180.16,205.01 L 178.32,204.80 L 177.74,204.66 L 177.23,204.50 L 176.46,203.78 L 175.51,202.62 L 169.37,193.63 L 162.90,185.92 L 162.73,185.48 L 162.65,185.00 L 162.67,183.98 L 162.43,180.17 L 162.22,179.30 L 161.96,178.48 L 161.23,177.93 L 160.07,177.24 L 149.95,173.42 L 148.86,172.86 L 147.76,172.06 L 146.65,171.02 L 145.77,169.57 L 143.25,166.91 L 144.75,164.85 L 148.79,162.19 L 149.45,161.59 L 150.01,160.91 L 150.59,160.34 L 150.87,160.14 L 151.11,160.00 L 152.29,159.44 L 152.63,159.16 L 153.53,158.20 L 155.96,156.22 L 156.56,155.58 L 157.06,154.84 L 157.27,154.40 L 157.40,153.91 L 157.38,153.26 L 156.89,152.43 L 153.72,149.14 L 150.01,146.32 L 149.35,145.28 L 149.09,143.41 L 148.94,142.99 L 148.73,142.63 L 148.47,142.29 L 148.10,142.03 L 147.48,141.97 L 146.65,142.15 L 144.12,143.71 L 143.50,143.87 L 139.57,143.84 L 135.39,144.57 L 133.89,145.23 L 133.87,145.21 L 132.47,143.89 L 130.50,143.26 L 126.51,142.92 L 125.29,141.95 L 125.84,141.92 L 126.51,140.83 L 127.30,139.02 L 127.33,137.95 L 127.19,137.04 L 126.85,136.21 L 126.26,135.40 L 125.68,135.06 L 123.76,134.36 L 122.91,133.76 L 122.28,132.85 L 119.99,126.28 L 119.68,124.28 L 120.19,122.47 L 123.80,117.81 L 124.36,112.59 L 124.28,107.22 L 125.91,102.10 L 127.35,99.27 L 127.76,96.90 L 127.86,94.56 L 128.39,91.88 L 129.89,89.51 L 131.86,87.36 L 133.22,85.03 L 132.81,82.07 L 133.94,82.02 L 135.07,82.14 L 135.19,82.17 L 157.46,88.39 L 165.09,88.78 L 167.40,89.22 L 169.82,89.98 L 172.09,91.05 L 173.95,92.45 L 177.64,95.20 L 178.59,96.76 L 178.71,99.27 L 177.66,103.15 L 178.11,104.54 L 180.39,106.18 L 182.77,107.24 L 183.90,106.98 L 184.84,105.84 L 186.71,104.31 L 188.98,103.48 L 190.98,103.62 L 192.97,104.10 L 195.23,104.34 L 202.92,102.74 L 205.61,102.57 L 225.26,105.48 L 230.30,105.52 L 239.49,100.75 L 248.11,96.29 L 255.44,93.67 L 275.47,90.24 L 294.86,83.09 L 298.23,82.35 L 300.42,81.24 L 312.14,75.24 L 320.25,72.71 L 324.39,72.36 Z"/><path id="r-ar-raqqah" data-region="Ar Raqqah" d="M 440.66,102.45 L 447.15,102.24 L 471.59,98.48 L 474.43,105.30 L 475.50,107.30 L 481.63,113.67 L 483.26,114.84 L 484.29,115.23 L 485.53,115.47 L 486.81,115.55 L 489.02,115.34 L 490.04,115.13 L 491.93,114.53 L 492.44,114.43 L 492.97,114.37 L 493.57,114.40 L 494.15,114.49 L 505.27,118.22 L 512.80,121.64 L 514.11,122.73 L 514.90,123.73 L 515.09,124.10 L 515.24,124.58 L 515.46,126.14 L 507.56,154.68 L 495.74,198.60 L 494.47,206.07 L 494.45,207.33 L 495.29,207.60 L 498.82,209.52 L 499.80,209.90 L 498.78,211.51 L 447.45,272.97 L 380.00,258.09 L 344.46,255.84 L 333.75,256.88 L 331.89,254.57 L 330.49,253.35 L 325.66,250.41 L 302.43,230.19 L 300.65,228.31 L 300.37,227.88 L 300.11,227.36 L 299.86,226.57 L 299.79,225.95 L 299.79,225.37 L 300.46,221.08 L 303.54,210.11 L 306.94,203.37 L 308.00,201.92 L 308.60,201.27 L 308.94,200.98 L 313.56,195.55 L 315.96,193.57 L 316.58,192.94 L 316.85,192.58 L 317.69,190.89 L 318.23,189.44 L 318.44,189.12 L 318.68,188.60 L 318.87,187.99 L 319.06,186.73 L 318.89,186.04 L 318.46,185.46 L 313.61,182.20 L 313.54,182.13 L 312.00,179.95 L 310.41,178.29 L 308.66,176.85 L 307.55,175.64 L 306.47,173.90 L 304.99,170.30 L 304.50,168.36 L 304.33,166.87 L 304.50,165.99 L 304.78,165.16 L 305.25,164.34 L 307.89,161.00 L 309.39,158.16 L 310.50,156.45 L 311.80,154.98 L 313.13,153.83 L 313.80,153.38 L 315.81,152.47 L 320.80,150.40 L 324.14,149.71 L 328.66,149.57 L 348.68,146.89 L 358.55,142.47 L 366.49,137.95 L 367.93,136.88 L 369.02,135.89 L 373.62,130.28 L 375.06,127.90 L 375.83,125.82 L 376.77,121.71 L 376.77,121.69 L 376.77,121.62 L 377.67,118.13 L 378.22,114.72 L 378.40,106.60 L 378.33,106.14 L 378.20,105.73 L 378.03,105.35 L 377.73,105.04 L 377.34,104.79 L 376.82,104.66 L 376.32,104.63 L 375.81,104.73 L 374.95,105.11 L 372.02,107.19 L 370.82,107.85 L 369.84,108.14 L 369.32,108.18 L 368.79,108.16 L 368.36,108.01 L 367.97,107.77 L 367.58,107.11 L 367.14,106.12 L 366.53,103.98 L 366.43,102.95 L 366.58,102.27 L 366.99,102.07 L 367.48,101.95 L 373.56,101.26 L 374.16,101.00 L 374.72,100.52 L 375.42,99.43 L 375.66,98.72 L 375.72,98.11 L 375.64,97.66 L 374.07,92.23 L 377.57,95.20 L 384.93,98.29 L 393.44,99.17 L 413.10,98.42 L 415.76,97.78 L 422.07,97.42 L 440.66,102.45 Z"/><path id="r-as-suwayda" data-region="As Suwayda'" d="M 236.16,582.41 L 226.56,587.60 L 205.87,598.82 L 192.48,606.06 L 192.46,606.06 L 173.95,616.27 L 154.52,627.55 L 152.97,628.00 L 151.27,627.94 L 143.55,626.22 L 140.92,626.15 L 138.82,627.20 L 134.46,624.39 L 117.92,622.68 L 117.92,622.65 L 117.87,621.94 L 118.35,618.50 L 118.45,618.18 L 118.09,612.34 L 118.17,611.80 L 118.99,609.45 L 119.10,608.98 L 119.20,607.97 L 119.05,607.54 L 118.77,607.00 L 117.57,605.38 L 115.90,603.78 L 115.30,603.02 L 115.26,602.71 L 115.35,602.30 L 115.99,601.09 L 116.78,600.17 L 116.89,599.99 L 116.70,599.27 L 115.30,597.39 L 113.31,597.60 L 113.03,597.59 L 112.78,597.51 L 112.36,597.32 L 111.90,597.01 L 111.62,596.69 L 111.11,596.23 L 110.83,596.15 L 110.53,596.09 L 110.25,596.10 L 107.96,596.43 L 106.07,596.40 L 104.08,596.12 L 103.89,595.90 L 103.81,595.55 L 103.94,594.77 L 104.06,594.38 L 104.45,593.46 L 104.58,593.01 L 104.49,592.64 L 103.78,591.27 L 103.66,590.72 L 103.83,590.09 L 104.09,589.84 L 104.34,589.68 L 105.86,589.28 L 106.31,589.11 L 106.50,589.01 L 106.67,588.88 L 107.29,588.27 L 107.46,588.13 L 107.87,587.90 L 108.73,587.53 L 109.09,587.28 L 109.42,587.00 L 109.54,586.84 L 109.65,586.65 L 109.91,585.75 L 109.93,585.23 L 109.63,584.82 L 109.07,584.31 L 107.49,583.40 L 106.73,583.05 L 106.16,582.86 L 103.74,582.67 L 103.21,582.54 L 101.36,581.89 L 101.08,581.83 L 100.80,581.80 L 100.21,581.78 L 99.67,581.69 L 99.31,581.56 L 99.15,581.42 L 98.93,581.17 L 98.63,580.65 L 98.47,580.32 L 98.39,580.03 L 98.28,579.28 L 98.28,578.75 L 98.37,577.98 L 98.66,577.38 L 99.95,576.36 L 99.01,568.28 L 99.01,566.35 L 99.23,566.06 L 99.30,565.96 L 99.41,565.57 L 98.97,564.30 L 96.82,559.96 L 96.52,558.71 L 96.20,557.86 L 96.10,557.12 L 96.12,556.87 L 96.18,556.63 L 96.33,556.21 L 97.32,554.55 L 97.38,554.32 L 97.42,554.09 L 97.40,553.84 L 97.36,553.63 L 97.28,553.40 L 97.19,553.20 L 96.87,552.64 L 96.72,552.22 L 96.68,551.97 L 96.70,551.72 L 96.95,551.37 L 97.38,550.99 L 99.31,549.77 L 100.76,549.05 L 102.43,547.69 L 106.14,545.30 L 107.04,544.93 L 108.34,544.64 L 113.22,544.38 L 120.35,544.78 L 120.93,544.73 L 121.19,544.67 L 121.32,544.48 L 121.36,544.17 L 121.12,543.53 L 120.55,542.57 L 120.35,542.16 L 120.29,541.94 L 120.23,541.72 L 120.07,538.84 L 119.93,538.41 L 119.82,538.23 L 119.69,538.06 L 119.52,537.93 L 119.32,537.83 L 119.03,537.77 L 118.75,537.76 L 118.17,537.80 L 117.90,537.85 L 116.03,538.41 L 115.86,538.43 L 115.65,538.43 L 115.41,538.39 L 115.20,538.30 L 115.00,538.20 L 114.85,538.06 L 114.57,537.75 L 114.45,537.55 L 114.40,537.32 L 114.34,535.44 L 114.29,534.95 L 114.19,534.49 L 114.02,534.07 L 113.20,532.56 L 112.86,531.74 L 112.59,530.86 L 112.58,530.56 L 112.62,530.18 L 112.77,529.53 L 112.88,528.77 L 112.86,528.50 L 112.74,528.04 L 112.51,527.42 L 112.43,527.20 L 112.39,526.91 L 112.41,526.56 L 112.56,526.02 L 112.78,525.45 L 113.14,524.90 L 113.72,524.28 L 114.42,523.74 L 116.48,522.40 L 116.99,522.33 L 117.75,522.32 L 121.15,522.66 L 122.13,522.48 L 124.47,521.48 L 155.06,517.77 L 155.26,517.89 L 156.39,518.88 L 156.93,519.25 L 157.92,520.10 L 158.97,520.79 L 162.49,522.39 L 162.86,522.63 L 164.21,523.92 L 164.70,524.69 L 164.83,525.11 L 165.09,526.54 L 165.28,526.94 L 165.56,527.25 L 169.82,530.89 L 170.07,531.16 L 170.23,531.42 L 170.42,531.83 L 170.76,532.84 L 170.83,533.91 L 170.93,534.39 L 171.08,534.84 L 171.17,535.04 L 171.28,535.21 L 171.60,535.50 L 174.08,537.05 L 174.50,537.23 L 176.58,537.47 L 177.29,537.48 L 185.15,538.91 L 185.77,539.23 L 185.95,539.36 L 186.27,539.62 L 186.90,540.03 L 188.30,540.71 L 188.68,540.94 L 188.85,541.08 L 188.98,541.25 L 189.09,541.44 L 189.17,541.64 L 189.22,541.85 L 189.24,542.05 L 189.22,542.38 L 189.13,542.80 L 189.17,543.49 L 189.19,543.63 L 189.24,543.80 L 189.45,544.15 L 189.71,544.49 L 189.95,544.77 L 190.10,544.90 L 190.12,544.91 L 190.14,544.93 L 190.35,545.06 L 190.67,545.33 L 190.80,545.50 L 190.97,545.85 L 191.06,546.02 L 191.21,546.20 L 191.28,546.36 L 191.40,546.50 L 191.66,546.76 L 191.96,546.97 L 192.17,547.24 L 192.39,547.99 L 198.55,550.99 L 200.10,551.60 L 200.33,551.56 L 200.78,551.41 L 200.98,551.30 L 201.17,551.19 L 201.49,550.90 L 202.08,550.77 L 205.54,550.90 L 207.46,551.43 L 208.30,552.19 L 208.81,552.86 L 209.04,553.24 L 209.20,553.64 L 209.58,554.83 L 210.12,560.37 L 210.24,560.82 L 210.29,561.00 L 210.37,561.11 L 210.69,561.55 L 227.12,575.51 L 233.01,579.16 L 234.10,580.15 L 236.13,582.38 L 236.16,582.41 Z"/><path id="r-damascus" data-region="Damascus" d="M 92.58,476.73 L 95.95,476.97 L 97.90,479.18 L 97.78,480.50 L 98.02,482.75 L 96.93,485.40 L 94.15,487.75 L 93.73,489.23 L 91.42,488.89 L 84.08,485.80 L 81.36,487.33 L 80.72,486.11 L 83.29,483.85 L 80.41,482.68 L 78.51,482.88 L 77.59,480.67 L 82.24,478.50 L 85.86,478.40 L 92.58,476.73 Z"/><path id="r-dar-a" data-region="Dar`a" d="M 46.67,582.13 L 46.07,581.97 L 43.99,580.18 L 42.84,579.61 L 29.84,577.05 L 28.73,575.86 L 28.73,575.85 L 28.74,575.83 L 28.23,575.50 L 27.60,575.40 L 30.19,572.25 L 32.19,571.22 L 33.13,570.75 L 33.89,569.62 L 36.43,566.50 L 37.09,565.46 L 36.92,564.79 L 37.79,563.67 L 44.17,558.70 L 47.79,556.21 L 48.41,555.48 L 48.48,555.28 L 48.54,554.75 L 48.18,552.38 L 48.00,551.66 L 47.81,551.20 L 47.51,550.90 L 47.38,550.73 L 47.28,550.53 L 47.32,550.26 L 47.49,549.96 L 48.00,549.58 L 48.37,549.42 L 48.75,549.34 L 50.88,549.24 L 51.47,549.31 L 51.71,549.39 L 51.90,549.52 L 52.03,549.69 L 52.11,549.89 L 52.24,550.31 L 52.33,550.50 L 52.48,550.67 L 52.61,550.82 L 52.80,550.96 L 53.01,551.07 L 53.21,551.16 L 53.42,551.21 L 53.65,551.20 L 53.80,551.09 L 53.91,550.90 L 53.89,550.44 L 53.74,549.75 L 52.95,547.61 L 52.73,547.19 L 52.24,546.74 L 51.71,546.09 L 51.07,544.93 L 51.05,544.91 L 51.03,544.86 L 49.65,543.11 L 49.05,541.96 L 49.12,541.05 L 50.58,533.47 L 50.72,533.30 L 51.51,531.75 L 53.03,529.69 L 52.99,529.37 L 52.82,528.88 L 52.26,527.95 L 51.90,527.54 L 51.60,527.28 L 49.89,526.22 L 49.76,526.05 L 49.85,524.80 L 50.81,520.17 L 53.44,521.08 L 53.76,521.28 L 54.25,521.65 L 54.98,522.81 L 55.41,523.27 L 56.19,523.43 L 58.52,523.47 L 59.20,523.37 L 59.95,523.16 L 60.38,522.98 L 61.13,522.52 L 62.91,521.19 L 63.12,521.09 L 72.71,520.43 L 73.22,520.30 L 75.03,519.49 L 80.10,518.05 L 81.24,517.58 L 81.69,516.62 L 82.39,515.57 L 82.58,515.17 L 82.74,514.69 L 82.74,514.67 L 82.74,514.65 L 82.78,514.47 L 82.80,514.24 L 82.74,513.76 L 82.31,512.41 L 82.37,512.02 L 82.54,511.49 L 83.12,510.37 L 83.49,509.96 L 83.85,509.77 L 84.08,509.84 L 84.28,509.95 L 84.45,510.08 L 84.60,510.24 L 85.57,511.64 L 86.16,512.25 L 86.50,512.51 L 86.71,512.63 L 88.00,513.20 L 88.19,513.32 L 88.36,513.46 L 88.51,513.61 L 88.62,513.81 L 88.69,514.02 L 88.82,515.26 L 88.90,515.48 L 89.01,515.66 L 89.14,515.83 L 89.33,515.96 L 89.52,516.07 L 89.74,516.18 L 90.08,516.27 L 92.30,516.52 L 92.82,516.64 L 93.05,516.73 L 93.40,516.99 L 93.55,517.13 L 93.69,517.30 L 94.19,518.26 L 94.30,518.43 L 94.47,518.58 L 95.67,519.23 L 96.03,519.50 L 96.33,519.81 L 96.85,520.04 L 99.97,520.81 L 100.93,520.95 L 101.58,520.98 L 101.81,520.89 L 102.09,520.72 L 102.18,520.62 L 102.30,520.45 L 102.37,520.24 L 102.43,519.99 L 102.54,518.69 L 102.60,518.47 L 102.69,518.27 L 103.08,517.77 L 106.73,514.98 L 107.21,514.70 L 107.23,514.69 L 107.25,514.68 L 113.22,511.57 L 113.61,511.22 L 114.27,510.50 L 116.29,509.33 L 116.70,509.29 L 117.21,509.30 L 117.64,509.61 L 117.87,509.84 L 118.03,510.07 L 118.26,510.43 L 118.45,510.82 L 118.97,512.30 L 119.18,512.68 L 119.43,513.03 L 123.53,517.02 L 123.68,517.22 L 123.91,517.59 L 123.98,517.80 L 124.06,518.02 L 124.11,518.24 L 124.19,520.21 L 124.47,521.48 L 122.13,522.48 L 121.15,522.66 L 117.75,522.32 L 116.99,522.33 L 116.48,522.40 L 114.42,523.74 L 113.72,524.28 L 113.14,524.90 L 112.78,525.45 L 112.56,526.02 L 112.41,526.56 L 112.39,526.91 L 112.43,527.20 L 112.51,527.42 L 112.74,528.04 L 112.86,528.50 L 112.88,528.77 L 112.77,529.53 L 112.62,530.18 L 112.58,530.56 L 112.59,530.86 L 112.86,531.74 L 113.20,532.56 L 114.02,534.07 L 114.19,534.49 L 114.29,534.95 L 114.34,535.44 L 114.40,537.32 L 114.45,537.55 L 114.57,537.75 L 114.85,538.06 L 115.00,538.20 L 115.20,538.30 L 115.41,538.39 L 115.65,538.43 L 115.86,538.43 L 116.03,538.41 L 117.90,537.85 L 118.17,537.80 L 118.75,537.76 L 119.03,537.77 L 119.32,537.83 L 119.52,537.93 L 119.69,538.06 L 119.82,538.23 L 119.93,538.41 L 120.07,538.84 L 120.23,541.72 L 120.29,541.94 L 120.35,542.16 L 120.55,542.57 L 121.12,543.53 L 121.36,544.17 L 121.32,544.48 L 121.19,544.67 L 120.93,544.73 L 120.35,544.78 L 113.22,544.38 L 108.34,544.64 L 107.04,544.93 L 106.14,545.30 L 102.43,547.69 L 100.76,549.05 L 99.31,549.77 L 97.38,550.99 L 96.95,551.37 L 96.70,551.72 L 96.68,551.97 L 96.72,552.22 L 96.87,552.64 L 97.19,553.20 L 97.28,553.40 L 97.36,553.63 L 97.40,553.84 L 97.42,554.09 L 97.38,554.32 L 97.32,554.55 L 96.33,556.21 L 96.18,556.63 L 96.12,556.87 L 96.10,557.12 L 96.20,557.86 L 96.52,558.71 L 96.82,559.96 L 98.97,564.30 L 99.41,565.57 L 99.30,565.96 L 99.23,566.06 L 99.01,566.35 L 99.01,568.28 L 99.95,576.36 L 98.66,577.38 L 98.37,577.98 L 98.28,578.75 L 98.28,579.28 L 98.39,580.03 L 98.47,580.32 L 98.63,580.65 L 98.93,581.17 L 99.15,581.42 L 99.31,581.56 L 99.67,581.69 L 100.21,581.78 L 100.80,581.80 L 101.08,581.83 L 101.36,581.89 L 103.21,582.54 L 103.74,582.67 L 106.16,582.86 L 106.73,583.05 L 107.49,583.40 L 109.07,584.31 L 109.63,584.82 L 109.93,585.23 L 109.91,585.75 L 109.65,586.65 L 109.54,586.84 L 109.42,587.00 L 109.09,587.28 L 108.73,587.53 L 107.87,587.90 L 107.46,588.13 L 107.29,588.27 L 106.67,588.88 L 106.50,589.01 L 106.31,589.11 L 105.86,589.28 L 104.34,589.68 L 104.09,589.84 L 103.83,590.09 L 103.66,590.72 L 103.78,591.27 L 104.49,592.64 L 104.58,593.01 L 104.45,593.46 L 104.06,594.38 L 103.94,594.77 L 103.81,595.55 L 103.89,595.90 L 104.08,596.12 L 106.07,596.40 L 107.96,596.43 L 110.25,596.10 L 110.53,596.09 L 110.83,596.15 L 111.11,596.23 L 111.62,596.69 L 111.90,597.01 L 112.36,597.32 L 112.78,597.51 L 113.03,597.59 L 113.31,597.60 L 115.30,597.39 L 116.70,599.27 L 116.89,599.99 L 116.78,600.17 L 115.99,601.09 L 115.35,602.30 L 115.26,602.71 L 115.30,603.02 L 115.90,603.78 L 117.57,605.38 L 118.77,607.00 L 119.05,607.54 L 119.20,607.97 L 119.10,608.98 L 118.99,609.45 L 118.17,611.80 L 118.09,612.34 L 118.45,618.18 L 118.35,618.50 L 117.87,621.94 L 117.92,622.65 L 117.92,622.68 L 113.50,622.23 L 111.54,621.19 L 104.73,620.60 L 102.35,619.99 L 100.56,619.13 L 89.94,610.60 L 82.14,606.05 L 78.20,602.70 L 76.89,602.09 L 76.26,602.26 L 74.89,603.31 L 74.29,603.56 L 73.57,603.44 L 72.32,603.03 L 71.55,602.96 L 67.08,603.48 L 65.35,603.43 L 63.89,603.39 L 63.46,603.30 L 63.43,602.78 L 62.76,601.37 L 57.31,594.37 L 56.17,592.35 L 56.08,590.08 L 56.44,588.02 L 55.88,586.64 L 53.06,586.46 L 51.31,586.73 L 50.05,586.36 L 48.98,585.51 L 47.88,584.36 L 48.33,584.41 L 48.72,583.92 L 48.88,583.13 L 48.70,582.33 L 48.23,582.12 L 46.67,582.13 Z"/><path id="r-dayr-az-zawr" data-region="Dayr Az Zawr" d="M 697.31,236.34 L 691.60,243.34 L 691.60,243.36 L 691.59,243.36 L 691.58,243.36 L 690.47,247.00 L 689.40,258.79 L 684.35,273.73 L 683.17,281.09 L 683.26,283.90 L 683.95,303.83 L 684.98,324.96 L 684.70,328.13 L 683.67,331.11 L 662.91,364.25 L 662.91,364.27 L 658.56,372.21 L 655.81,375.44 L 652.28,377.34 L 622.58,383.94 L 604.85,392.83 L 591.48,399.54 L 578.11,406.23 L 564.74,412.93 L 560.03,415.28 L 559.99,415.24 L 491.87,334.17 L 471.94,310.80 L 471.46,310.07 L 470.88,308.95 L 470.80,307.69 L 471.57,300.71 L 471.52,299.57 L 471.12,298.46 L 463.45,285.07 L 459.63,281.11 L 447.45,272.97 L 498.78,211.51 L 499.80,209.90 L 498.82,209.52 L 495.29,207.60 L 494.45,207.33 L 494.47,206.07 L 495.74,198.60 L 507.56,154.68 L 515.46,126.14 L 518.07,130.88 L 527.10,142.99 L 542.22,155.46 L 632.80,227.38 L 636.67,229.25 L 638.90,230.07 L 646.36,231.40 L 650.70,232.72 L 659.95,234.28 L 683.70,234.76 L 697.25,236.33 L 697.31,236.34 Z"/><path id="r-hamah" data-region="Hamah" d="M 202.53,236.43 L 212.82,239.37 L 217.16,241.75 L 218.21,242.17 L 219.09,242.39 L 226.13,242.46 L 246.00,241.28 L 248.32,242.60 L 248.38,242.64 L 256.41,247.23 L 258.45,247.97 L 263.88,249.28 L 274.12,250.52 L 325.66,250.41 L 330.49,253.35 L 331.89,254.57 L 333.75,256.88 L 333.92,258.98 L 333.54,272.44 L 332.98,274.43 L 331.69,276.95 L 330.52,278.71 L 327.57,282.30 L 327.10,283.11 L 326.54,284.42 L 326.24,285.40 L 326.06,286.46 L 326.04,287.46 L 326.67,291.50 L 326.26,292.06 L 325.40,292.70 L 309.45,298.53 L 307.46,299.78 L 304.16,302.31 L 303.65,302.82 L 303.60,303.09 L 303.60,303.12 L 303.49,304.11 L 303.39,304.33 L 303.28,304.53 L 303.15,304.69 L 302.43,305.46 L 302.31,305.66 L 301.70,306.89 L 301.10,307.79 L 301.01,307.99 L 300.93,308.22 L 300.93,308.47 L 301.01,309.47 L 300.99,310.01 L 300.89,310.50 L 300.82,310.72 L 300.72,310.92 L 300.63,311.11 L 300.48,311.27 L 300.26,311.64 L 300.14,311.84 L 300.01,312.29 L 299.82,312.69 L 299.69,312.87 L 297.46,314.91 L 297.20,315.04 L 296.30,315.35 L 295.91,315.41 L 295.58,315.38 L 294.91,314.81 L 290.22,309.86 L 289.15,308.52 L 288.34,307.81 L 281.51,303.19 L 281.29,303.08 L 281.27,303.07 L 280.87,302.85 L 279.82,302.05 L 279.37,301.60 L 279.26,301.41 L 279.19,301.19 L 278.81,299.60 L 278.70,298.34 L 278.53,297.66 L 277.97,295.93 L 277.86,295.75 L 277.72,295.59 L 277.07,295.03 L 276.92,294.87 L 276.81,294.69 L 276.62,294.30 L 276.54,294.08 L 276.34,293.70 L 275.96,293.19 L 275.37,292.57 L 275.21,292.44 L 274.79,292.19 L 274.59,292.10 L 274.04,291.97 L 271.64,291.94 L 271.03,291.87 L 270.50,291.74 L 270.05,291.56 L 269.66,291.33 L 269.47,291.20 L 268.10,289.85 L 267.36,289.32 L 266.54,288.90 L 266.30,288.81 L 265.92,288.77 L 265.45,288.77 L 255.42,290.71 L 249.81,292.34 L 248.16,292.64 L 247.63,292.67 L 246.54,292.62 L 245.88,292.80 L 245.08,293.13 L 241.32,295.33 L 238.96,296.37 L 238.13,296.86 L 237.61,297.27 L 237.46,297.43 L 237.35,297.60 L 236.93,298.37 L 236.77,298.80 L 236.49,300.48 L 236.50,303.61 L 236.58,304.09 L 237.14,305.54 L 237.27,305.99 L 237.29,306.23 L 237.27,306.48 L 237.22,306.71 L 237.12,306.91 L 236.92,307.23 L 236.80,307.33 L 236.67,307.42 L 236.49,307.53 L 236.13,307.59 L 235.64,307.60 L 234.66,307.44 L 234.21,307.29 L 233.89,307.13 L 233.48,306.65 L 232.37,305.10 L 232.20,304.96 L 232.00,304.84 L 231.51,304.69 L 230.91,304.63 L 229.51,304.69 L 228.61,304.54 L 227.89,304.54 L 226.31,304.74 L 225.62,304.73 L 225.17,304.83 L 224.59,305.04 L 223.52,305.66 L 222.79,305.94 L 221.91,306.13 L 220.85,306.03 L 219.93,305.81 L 218.71,305.13 L 218.49,305.03 L 218.23,304.97 L 217.85,305.05 L 217.42,305.28 L 216.82,305.94 L 216.62,306.36 L 216.54,306.70 L 216.54,306.96 L 216.52,307.19 L 216.30,307.34 L 215.92,307.41 L 214.03,307.02 L 212.73,307.02 L 212.43,307.07 L 212.09,307.19 L 211.72,307.42 L 211.40,307.87 L 211.23,308.19 L 210.95,309.15 L 210.84,309.33 L 210.69,309.48 L 209.80,310.16 L 209.64,310.31 L 209.52,310.49 L 209.43,310.67 L 208.96,312.25 L 208.77,312.64 L 208.66,312.83 L 208.53,313.00 L 207.87,313.57 L 207.12,314.05 L 206.76,314.10 L 206.27,314.10 L 204.83,313.80 L 203.78,313.40 L 203.37,313.20 L 203.18,313.06 L 202.90,312.74 L 202.45,312.03 L 201.98,311.01 L 201.85,310.84 L 201.68,310.69 L 201.36,310.43 L 200.97,310.20 L 200.52,310.00 L 200.03,309.84 L 199.73,309.81 L 199.09,309.80 L 198.43,310.03 L 195.60,311.61 L 194.85,312.16 L 194.42,312.57 L 194.23,313.27 L 194.08,313.43 L 193.86,313.48 L 192.86,313.02 L 191.88,312.70 L 191.66,312.60 L 191.30,312.35 L 190.67,312.04 L 190.42,311.95 L 190.16,311.89 L 189.86,311.86 L 189.28,311.86 L 188.90,312.03 L 188.47,312.32 L 187.16,313.74 L 186.80,313.89 L 186.22,314.05 L 184.16,314.20 L 183.11,314.45 L 182.30,314.89 L 176.29,318.88 L 175.56,319.21 L 173.06,319.93 L 170.08,314.42 L 166.37,308.35 L 166.27,308.15 L 165.67,307.50 L 163.87,306.26 L 162.34,305.87 L 161.08,305.73 L 160.33,305.85 L 159.56,306.08 L 157.77,307.06 L 157.23,307.24 L 156.71,307.29 L 155.56,307.29 L 154.83,307.43 L 154.12,307.70 L 152.50,308.94 L 152.01,309.07 L 148.21,309.31 L 147.81,309.28 L 147.61,309.22 L 146.65,309.24 L 145.58,309.44 L 145.13,309.47 L 144.81,309.44 L 144.64,309.35 L 143.46,309.72 L 133.95,313.68 L 128.04,313.50 L 125.30,314.02 L 123.87,314.74 L 123.40,314.91 L 123.12,314.98 L 122.60,314.94 L 121.88,314.82 L 120.76,314.40 L 120.33,314.10 L 120.10,313.80 L 120.10,313.26 L 120.08,313.01 L 120.01,312.79 L 119.88,312.62 L 119.69,312.49 L 119.48,312.39 L 119.24,312.32 L 118.97,312.29 L 118.09,312.24 L 117.87,312.16 L 117.72,312.01 L 117.66,311.79 L 117.66,311.56 L 117.74,311.34 L 117.83,311.15 L 118.26,310.68 L 118.52,310.32 L 118.62,310.13 L 118.67,309.90 L 118.65,309.66 L 118.58,309.46 L 118.47,309.27 L 118.32,309.12 L 118.13,308.99 L 117.72,308.77 L 117.25,308.62 L 116.87,308.59 L 116.42,308.61 L 115.30,308.85 L 115.05,308.95 L 114.92,309.03 L 114.75,309.14 L 113.78,310.21 L 112.84,311.52 L 109.87,314.22 L 109.84,315.17 L 109.95,315.95 L 109.84,316.28 L 109.61,316.67 L 108.97,317.33 L 108.73,317.73 L 108.62,318.07 L 108.62,319.12 L 108.58,319.36 L 108.38,319.62 L 107.46,320.48 L 107.18,320.82 L 106.59,320.98 L 106.16,321.05 L 102.45,320.38 L 101.58,319.19 L 101.26,318.99 L 100.78,318.79 L 99.90,318.80 L 99.48,318.86 L 99.16,318.97 L 98.82,319.23 L 97.43,320.86 L 97.08,321.12 L 96.87,321.22 L 96.61,321.27 L 96.14,321.00 L 95.58,320.49 L 94.49,319.15 L 93.97,318.67 L 93.61,318.41 L 93.35,318.39 L 93.10,318.33 L 92.86,318.24 L 92.79,318.03 L 92.88,317.72 L 93.63,316.91 L 93.84,316.74 L 94.14,316.55 L 94.12,316.19 L 93.31,315.09 L 92.86,314.28 L 92.27,313.66 L 89.18,311.86 L 88.71,311.48 L 88.47,311.14 L 88.11,310.37 L 87.62,308.69 L 86.89,307.19 L 86.18,306.93 L 85.11,306.73 L 80.46,307.09 L 78.50,307.01 L 72.86,306.09 L 71.99,302.84 L 73.25,302.20 L 74.47,302.15 L 75.60,302.34 L 76.12,302.35 L 76.59,302.26 L 76.98,302.06 L 77.73,301.57 L 78.16,301.39 L 78.68,301.27 L 79.76,301.13 L 80.23,300.98 L 80.98,300.51 L 81.47,300.37 L 83.18,300.25 L 83.64,300.04 L 84.47,299.24 L 84.90,298.93 L 85.72,298.46 L 86.14,298.01 L 86.52,297.32 L 87.51,294.51 L 87.49,292.65 L 86.11,278.40 L 86.03,276.10 L 85.72,271.38 L 82.61,259.16 L 80.61,254.47 L 79.86,252.15 L 79.78,251.70 L 82.11,238.38 L 82.58,230.32 L 82.24,226.53 L 81.92,225.18 L 81.62,224.39 L 81.19,223.69 L 79.76,222.09 L 79.56,221.73 L 79.61,221.22 L 79.97,220.59 L 81.19,219.57 L 83.03,218.52 L 83.34,217.99 L 83.59,217.23 L 83.79,214.17 L 84.30,213.11 L 86.26,211.71 L 86.84,212.55 L 87.12,212.82 L 87.59,213.14 L 88.09,213.42 L 89.01,213.66 L 89.95,213.76 L 91.50,213.64 L 92.94,213.23 L 93.37,213.02 L 93.82,212.86 L 94.32,212.78 L 94.85,212.78 L 95.33,212.94 L 95.78,213.23 L 96.46,213.92 L 96.78,214.45 L 97.02,214.95 L 97.13,215.36 L 97.28,215.76 L 97.51,216.12 L 99.16,216.55 L 104.43,216.68 L 105.29,217.12 L 105.48,218.67 L 104.71,223.97 L 103.01,230.51 L 102.76,232.66 L 103.78,240.82 L 103.57,241.46 L 103.31,241.94 L 103.06,242.21 L 102.95,242.58 L 102.95,242.64 L 105.58,247.49 L 106.18,249.60 L 106.97,250.32 L 109.57,250.93 L 113.78,249.24 L 114.34,249.18 L 115.15,249.41 L 117.29,250.28 L 117.68,250.52 L 118.00,250.82 L 118.41,251.56 L 118.73,252.33 L 118.93,252.69 L 119.18,253.03 L 119.48,253.33 L 119.88,253.58 L 120.38,253.76 L 120.97,253.86 L 122.18,253.93 L 124.51,253.81 L 125.71,253.94 L 133.78,255.76 L 140.01,255.94 L 154.57,252.69 L 155.13,252.66 L 155.68,252.69 L 156.20,252.83 L 156.65,253.01 L 160.27,255.68 L 160.74,256.37 L 160.93,256.76 L 161.42,257.46 L 161.74,257.74 L 162.13,257.98 L 163.42,258.65 L 163.74,258.94 L 163.97,259.29 L 164.25,259.60 L 164.75,259.78 L 165.50,259.74 L 166.73,259.55 L 167.61,259.50 L 168.43,259.25 L 169.17,258.84 L 171.28,256.17 L 173.91,254.04 L 174.35,253.60 L 175.34,252.10 L 175.68,251.78 L 176.07,251.61 L 176.67,251.72 L 177.06,251.97 L 177.36,252.28 L 177.61,252.63 L 177.81,252.99 L 177.98,253.38 L 178.08,253.83 L 178.17,254.75 L 178.15,255.25 L 178.08,255.75 L 177.93,256.23 L 176.76,258.23 L 176.63,258.70 L 176.61,259.18 L 176.65,259.64 L 177.08,261.34 L 177.14,261.81 L 177.16,263.29 L 177.29,263.69 L 177.51,264.04 L 177.87,264.31 L 178.32,264.54 L 178.83,264.71 L 179.39,264.80 L 180.55,264.80 L 183.27,264.53 L 185.80,264.62 L 186.42,264.53 L 187.12,264.32 L 187.62,264.09 L 188.00,263.79 L 189.00,262.40 L 189.69,261.68 L 190.07,261.43 L 190.46,261.21 L 190.91,261.06 L 191.40,260.98 L 191.94,261.04 L 192.50,261.15 L 192.97,261.29 L 193.35,261.27 L 193.53,260.93 L 193.61,255.89 L 193.46,254.99 L 193.31,254.59 L 193.08,254.25 L 192.75,253.96 L 192.35,253.76 L 191.85,253.67 L 191.38,253.76 L 191.00,253.98 L 190.68,254.27 L 190.37,254.60 L 189.65,255.78 L 189.39,256.11 L 189.05,256.40 L 188.62,256.60 L 188.14,256.72 L 187.57,256.76 L 186.99,256.69 L 186.48,256.54 L 186.09,256.29 L 185.77,255.99 L 185.62,255.59 L 185.58,255.12 L 185.65,254.61 L 185.97,253.78 L 188.30,249.64 L 188.92,248.76 L 189.62,248.17 L 191.19,247.38 L 193.68,246.47 L 194.53,246.06 L 195.26,245.28 L 198.25,240.94 L 199.54,238.40 L 199.91,237.84 L 200.25,237.46 L 202.53,236.43 Z"/><path id="r-hasaka-al-haksa" data-region="Hasaka (Al Haksa)" d="M 806.46,22.00 L 807.83,23.32 L 807.98,24.72 L 807.78,25.93 L 807.91,26.45 L 809.56,26.67 L 813.23,28.09 L 813.92,27.82 L 814.68,27.15 L 815.48,26.64 L 816.23,26.82 L 816.76,27.47 L 817.37,28.65 L 817.89,29.30 L 822.02,31.95 L 822.84,32.29 L 823.63,33.83 L 821.47,40.59 L 822.84,42.13 L 823.79,42.86 L 824.03,44.57 L 824.12,47.99 L 824.89,49.42 L 825.80,50.65 L 826.49,52.00 L 826.53,53.76 L 826.48,53.79 L 822.74,56.10 L 815.01,62.00 L 815.01,62.01 L 814.97,62.01 L 802.50,72.73 L 778.33,93.49 L 762.03,107.49 L 758.84,109.68 L 755.52,110.95 L 718.02,117.37 L 710.17,118.43 L 706.61,119.76 L 704.19,122.45 L 704.19,122.46 L 704.17,122.47 L 704.17,122.48 L 693.50,139.30 L 692.52,142.54 L 688.62,172.89 L 688.63,174.90 L 689.10,177.00 L 692.20,182.89 L 692.22,182.88 L 692.22,182.90 L 701.56,199.41 L 702.87,203.29 L 703.45,207.26 L 703.96,223.88 L 703.30,227.67 L 701.39,231.33 L 697.31,236.34 L 697.25,236.33 L 683.70,234.76 L 659.95,234.28 L 650.70,232.72 L 646.36,231.40 L 638.90,230.07 L 636.67,229.25 L 632.80,227.38 L 542.22,155.46 L 527.10,142.99 L 518.07,130.88 L 515.46,126.14 L 515.24,124.58 L 515.09,124.10 L 514.90,123.73 L 514.11,122.73 L 512.80,121.64 L 505.27,118.22 L 494.15,114.49 L 493.57,114.40 L 492.97,114.37 L 492.44,114.43 L 491.93,114.53 L 490.04,115.13 L 489.02,115.34 L 486.81,115.55 L 485.53,115.47 L 484.29,115.23 L 483.26,114.84 L 481.63,113.67 L 475.50,107.30 L 474.43,105.30 L 471.59,98.48 L 510.71,92.46 L 536.66,84.63 L 548.68,78.84 L 553.03,77.64 L 557.56,76.96 L 562.09,75.26 L 570.70,70.62 L 586.71,62.01 L 589.14,60.80 L 591.72,60.00 L 594.35,59.58 L 597.12,59.45 L 602.66,58.16 L 618.83,50.98 L 624.82,49.14 L 647.49,46.45 L 676.34,51.10 L 681.74,52.87 L 684.35,53.43 L 718.02,52.15 L 768.39,42.63 L 782.04,40.05 L 787.33,37.51 L 796.44,30.66 L 802.51,24.25 L 804.26,23.41 L 806.46,22.00 Z"/><path id="r-homs-hims" data-region="Homs (Hims)" d="M 102.75,348.76 L 99.88,347.95 L 97.45,346.14 L 94.60,341.87 L 92.80,340.89 L 90.29,342.34 L 89.89,343.27 L 89.84,345.63 L 89.39,346.75 L 88.27,347.73 L 87.07,348.18 L 79.78,348.52 L 79.04,348.31 L 77.61,347.43 L 77.00,347.21 L 76.26,347.36 L 74.81,348.08 L 74.29,348.22 L 69.00,347.91 L 69.01,347.88 L 69.29,346.63 L 69.48,344.23 L 69.74,343.40 L 78.00,331.08 L 80.79,327.93 L 80.96,327.79 L 81.15,327.67 L 81.38,327.58 L 82.16,327.40 L 82.58,327.14 L 83.08,326.72 L 84.97,324.73 L 88.11,322.48 L 88.51,322.07 L 88.73,321.71 L 88.77,321.46 L 88.75,320.65 L 88.52,319.49 L 88.54,319.08 L 88.62,318.53 L 88.88,317.47 L 89.09,316.98 L 89.26,316.64 L 89.57,316.34 L 89.76,316.21 L 90.15,315.98 L 91.09,315.65 L 93.31,315.09 L 94.12,316.19 L 94.14,316.55 L 93.84,316.74 L 93.63,316.91 L 92.88,317.72 L 92.79,318.03 L 92.86,318.24 L 93.10,318.33 L 93.35,318.39 L 93.61,318.41 L 93.97,318.67 L 94.49,319.15 L 95.58,320.49 L 96.14,321.00 L 96.61,321.27 L 96.87,321.22 L 97.08,321.12 L 97.43,320.86 L 98.82,319.23 L 99.16,318.97 L 99.48,318.86 L 99.90,318.80 L 100.78,318.79 L 101.26,318.99 L 101.58,319.19 L 102.45,320.38 L 106.16,321.05 L 106.59,320.98 L 107.18,320.82 L 107.46,320.48 L 108.38,319.62 L 108.58,319.36 L 108.62,319.12 L 108.62,318.07 L 108.73,317.73 L 108.97,317.33 L 109.61,316.67 L 109.84,316.28 L 109.95,315.95 L 109.84,315.17 L 109.87,314.22 L 112.84,311.52 L 113.78,310.21 L 114.75,309.14 L 114.92,309.03 L 115.05,308.95 L 115.30,308.85 L 116.42,308.61 L 116.87,308.59 L 117.25,308.62 L 117.72,308.77 L 118.13,308.99 L 118.32,309.12 L 118.47,309.27 L 118.58,309.46 L 118.65,309.66 L 118.67,309.90 L 118.62,310.13 L 118.52,310.32 L 118.26,310.68 L 117.83,311.15 L 117.74,311.34 L 117.66,311.56 L 117.66,311.79 L 117.72,312.01 L 117.87,312.16 L 118.09,312.24 L 118.97,312.29 L 119.24,312.32 L 119.48,312.39 L 119.69,312.49 L 119.88,312.62 L 120.01,312.79 L 120.08,313.01 L 120.10,313.26 L 120.10,313.80 L 120.33,314.10 L 120.76,314.40 L 121.88,314.82 L 122.60,314.94 L 123.12,314.98 L 123.40,314.91 L 123.87,314.74 L 125.30,314.02 L 128.04,313.50 L 133.95,313.68 L 143.46,309.72 L 144.64,309.35 L 144.81,309.44 L 145.13,309.47 L 145.58,309.44 L 146.65,309.24 L 147.61,309.22 L 147.81,309.28 L 148.21,309.31 L 152.01,309.07 L 152.50,308.94 L 154.12,307.70 L 154.83,307.43 L 155.56,307.29 L 156.71,307.29 L 157.23,307.24 L 157.77,307.06 L 159.56,306.08 L 160.33,305.85 L 161.08,305.73 L 162.34,305.87 L 163.87,306.26 L 165.67,307.50 L 166.27,308.15 L 166.37,308.35 L 170.08,314.42 L 173.06,319.93 L 175.56,319.21 L 176.29,318.88 L 182.30,314.89 L 183.11,314.45 L 184.16,314.20 L 186.22,314.05 L 186.80,313.89 L 187.16,313.74 L 188.47,312.32 L 188.90,312.03 L 189.28,311.86 L 189.86,311.86 L 190.16,311.89 L 190.42,311.95 L 190.67,312.04 L 191.30,312.35 L 191.66,312.60 L 191.88,312.70 L 192.86,313.02 L 193.86,313.48 L 194.08,313.43 L 194.23,313.27 L 194.42,312.57 L 194.85,312.16 L 195.60,311.61 L 198.43,310.03 L 199.09,309.80 L 199.73,309.81 L 200.03,309.84 L 200.52,310.00 L 200.97,310.20 L 201.36,310.43 L 201.68,310.69 L 201.85,310.84 L 201.98,311.01 L 202.45,312.03 L 202.90,312.74 L 203.18,313.06 L 203.37,313.20 L 203.78,313.40 L 204.83,313.80 L 206.27,314.10 L 206.76,314.10 L 207.12,314.05 L 207.87,313.57 L 208.53,313.00 L 208.66,312.83 L 208.77,312.64 L 208.96,312.25 L 209.43,310.67 L 209.52,310.49 L 209.64,310.31 L 209.80,310.16 L 210.69,309.48 L 210.84,309.33 L 210.95,309.15 L 211.23,308.19 L 211.40,307.87 L 211.72,307.42 L 212.09,307.19 L 212.43,307.07 L 212.73,307.02 L 214.03,307.02 L 215.92,307.41 L 216.30,307.34 L 216.52,307.19 L 216.54,306.96 L 216.54,306.70 L 216.62,306.36 L 216.82,305.94 L 217.42,305.28 L 217.85,305.05 L 218.23,304.97 L 218.49,305.03 L 218.71,305.13 L 219.93,305.81 L 220.85,306.03 L 221.91,306.13 L 222.79,305.94 L 223.52,305.66 L 224.59,305.04 L 225.17,304.83 L 225.62,304.73 L 226.31,304.74 L 227.89,304.54 L 228.61,304.54 L 229.51,304.69 L 230.91,304.63 L 231.51,304.69 L 232.00,304.84 L 232.20,304.96 L 232.37,305.10 L 233.48,306.65 L 233.89,307.13 L 234.21,307.29 L 234.66,307.44 L 235.64,307.60 L 236.13,307.59 L 236.49,307.53 L 236.67,307.42 L 236.80,307.33 L 236.92,307.23 L 237.12,306.91 L 237.22,306.71 L 237.27,306.48 L 237.29,306.23 L 237.27,305.99 L 237.14,305.54 L 236.58,304.09 L 236.50,303.61 L 236.49,300.48 L 236.77,298.80 L 236.93,298.37 L 237.35,297.60 L 237.46,297.43 L 237.61,297.27 L 238.13,296.86 L 238.96,296.37 L 241.32,295.33 L 245.08,293.13 L 245.88,292.80 L 246.54,292.62 L 247.63,292.67 L 248.16,292.64 L 249.81,292.34 L 255.42,290.71 L 265.45,288.77 L 265.92,288.77 L 266.30,288.81 L 266.54,288.90 L 267.36,289.32 L 268.10,289.85 L 269.47,291.20 L 269.66,291.33 L 270.05,291.56 L 270.50,291.74 L 271.03,291.87 L 271.64,291.94 L 274.04,291.97 L 274.59,292.10 L 274.79,292.19 L 275.21,292.44 L 275.37,292.57 L 275.96,293.19 L 276.34,293.70 L 276.54,294.08 L 276.62,294.30 L 276.81,294.69 L 276.92,294.87 L 277.07,295.03 L 277.72,295.59 L 277.86,295.75 L 277.97,295.93 L 278.53,297.66 L 278.70,298.34 L 278.81,299.60 L 279.19,301.19 L 279.26,301.41 L 279.37,301.60 L 279.82,302.05 L 280.87,302.85 L 281.27,303.07 L 281.29,303.08 L 281.51,303.19 L 288.34,307.81 L 289.15,308.52 L 290.22,309.86 L 294.91,314.81 L 295.58,315.38 L 295.91,315.41 L 296.30,315.35 L 297.20,315.04 L 297.46,314.91 L 299.69,312.87 L 299.82,312.69 L 300.01,312.29 L 300.14,311.84 L 300.26,311.64 L 300.48,311.27 L 300.63,311.11 L 300.72,310.92 L 300.82,310.72 L 300.89,310.50 L 300.99,310.01 L 301.01,309.47 L 300.93,308.47 L 300.93,308.22 L 301.01,307.99 L 301.10,307.79 L 301.70,306.89 L 302.31,305.66 L 302.43,305.46 L 303.15,304.69 L 303.28,304.53 L 303.39,304.33 L 303.49,304.11 L 303.60,303.12 L 303.60,303.09 L 303.65,302.82 L 304.16,302.31 L 307.46,299.78 L 309.45,298.53 L 325.40,292.70 L 326.26,292.06 L 326.67,291.50 L 326.04,287.46 L 326.06,286.46 L 326.24,285.40 L 326.54,284.42 L 327.10,283.11 L 327.57,282.30 L 330.52,278.71 L 331.69,276.95 L 332.98,274.43 L 333.54,272.44 L 333.92,258.98 L 333.75,256.88 L 344.46,255.84 L 380.00,258.09 L 447.45,272.97 L 459.63,281.11 L 463.45,285.07 L 471.12,298.46 L 471.52,299.57 L 471.57,300.71 L 470.80,307.69 L 470.88,308.95 L 471.46,310.07 L 471.94,310.80 L 491.87,334.17 L 559.99,415.24 L 560.03,415.28 L 551.36,419.63 L 537.99,426.32 L 524.63,433.02 L 511.25,439.72 L 497.89,446.42 L 484.52,453.11 L 471.15,459.80 L 457.78,466.50 L 444.41,473.20 L 431.03,479.90 L 417.66,486.60 L 404.29,493.29 L 390.92,500.00 L 361.30,515.40 L 335.45,529.08 L 335.40,529.04 L 286.17,496.01 L 282.51,494.09 L 279.45,492.05 L 278.70,491.66 L 277.56,491.20 L 277.33,491.15 L 277.12,491.07 L 275.10,490.80 L 273.89,490.39 L 269.36,489.44 L 267.50,488.75 L 266.31,488.04 L 262.92,486.43 L 254.71,481.11 L 246.54,471.88 L 245.88,470.24 L 245.45,469.49 L 244.76,467.88 L 244.66,467.70 L 244.55,467.40 L 244.36,466.65 L 243.20,464.33 L 242.47,463.28 L 230.76,454.23 L 229.56,453.45 L 227.50,452.40 L 217.81,444.30 L 215.98,443.26 L 215.12,442.66 L 208.83,434.08 L 208.74,433.92 L 208.38,433.38 L 207.61,431.85 L 207.56,431.62 L 207.48,431.41 L 207.38,431.21 L 207.26,431.04 L 206.56,430.63 L 204.14,429.92 L 201.76,430.18 L 200.48,430.16 L 199.91,430.07 L 198.68,429.73 L 186.91,424.03 L 186.84,424.01 L 186.82,424.00 L 186.80,423.99 L 186.76,423.99 L 186.05,423.68 L 184.70,422.84 L 180.54,419.71 L 180.01,418.89 L 179.67,418.48 L 179.50,418.35 L 178.94,417.99 L 178.77,417.86 L 178.39,417.35 L 178.21,416.99 L 178.09,416.71 L 176.88,415.00 L 176.69,414.62 L 175.79,413.45 L 175.64,413.29 L 174.95,412.19 L 173.12,409.85 L 172.33,408.56 L 171.62,407.77 L 169.47,405.90 L 167.67,403.66 L 165.99,402.26 L 163.31,399.49 L 162.92,398.99 L 162.82,398.80 L 161.34,396.98 L 160.65,396.46 L 160.07,396.44 L 159.16,396.54 L 155.51,397.48 L 151.28,399.49 L 151.00,399.56 L 149.91,399.54 L 141.36,398.61 L 139.20,397.59 L 138.62,397.51 L 135.79,397.52 L 133.82,397.83 L 130.89,399.23 L 128.42,399.83 L 127.78,398.65 L 124.85,396.25 L 124.06,394.51 L 123.49,392.23 L 124.40,390.67 L 125.56,389.33 L 125.81,387.76 L 125.19,386.82 L 124.40,386.67 L 123.51,386.72 L 122.65,386.41 L 121.37,385.25 L 118.75,382.20 L 118.15,381.26 L 117.83,380.30 L 117.93,379.30 L 118.32,378.67 L 118.75,378.10 L 119.08,377.27 L 119.50,375.29 L 119.60,373.94 L 118.94,372.89 L 117.02,371.74 L 116.13,372.00 L 115.25,371.52 L 113.50,369.72 L 111.46,368.98 L 109.83,367.86 L 108.63,366.29 L 107.86,364.27 L 107.86,364.25 L 106.19,363.77 L 102.88,363.55 L 99.35,363.69 L 97.00,364.27 L 96.67,364.36 L 96.33,364.38 L 96.00,364.36 L 95.67,364.27 L 95.33,363.74 L 94.12,361.86 L 96.15,360.08 L 99.46,358.60 L 101.82,357.06 L 102.37,355.16 L 102.22,353.38 L 102.47,351.93 L 104.26,351.01 L 106.04,351.44 L 107.33,352.30 L 108.19,351.74 L 108.67,347.93 L 105.74,348.71 L 102.75,348.76 Z"/><path id="r-idlib" data-region="Idlib" d="M 127.20,155.83 L 135.76,154.51 L 136.46,153.50 L 136.35,150.78 L 135.91,149.07 L 135.06,147.07 L 133.89,145.23 L 135.39,144.57 L 139.57,143.84 L 143.50,143.87 L 144.12,143.71 L 146.65,142.15 L 147.48,141.97 L 148.10,142.03 L 148.47,142.29 L 148.73,142.63 L 148.94,142.99 L 149.09,143.41 L 149.35,145.28 L 150.01,146.32 L 153.72,149.14 L 156.89,152.43 L 157.38,153.26 L 157.40,153.91 L 157.27,154.40 L 157.06,154.84 L 156.56,155.58 L 155.96,156.22 L 153.53,158.20 L 152.63,159.16 L 152.29,159.44 L 151.11,160.00 L 150.87,160.14 L 150.59,160.34 L 150.01,160.91 L 149.45,161.59 L 148.79,162.19 L 144.75,164.85 L 143.25,166.91 L 145.77,169.57 L 146.65,171.02 L 147.76,172.06 L 148.86,172.86 L 149.95,173.42 L 160.07,177.24 L 161.23,177.93 L 161.96,178.48 L 162.22,179.30 L 162.43,180.17 L 162.67,183.98 L 162.65,185.00 L 162.73,185.48 L 162.90,185.92 L 169.37,193.63 L 175.51,202.62 L 176.46,203.78 L 177.23,204.50 L 177.74,204.66 L 178.32,204.80 L 180.16,205.01 L 181.66,205.80 L 184.10,207.72 L 187.61,209.71 L 188.21,210.25 L 188.57,210.75 L 188.64,211.19 L 188.66,211.67 L 188.59,212.16 L 188.44,212.63 L 187.99,213.34 L 187.57,213.77 L 186.99,214.28 L 186.24,214.79 L 185.82,215.00 L 184.46,215.48 L 183.71,215.97 L 183.09,216.82 L 184.85,221.39 L 185.92,223.15 L 186.72,224.07 L 187.06,224.88 L 187.51,227.04 L 188.19,227.87 L 192.00,231.58 L 192.62,231.87 L 193.61,232.15 L 194.28,232.46 L 195.04,232.91 L 196.86,234.38 L 197.48,234.72 L 202.53,236.43 L 200.25,237.46 L 199.91,237.84 L 199.54,238.40 L 198.25,240.94 L 195.26,245.28 L 194.53,246.06 L 193.68,246.47 L 191.19,247.38 L 189.62,248.17 L 188.92,248.76 L 188.30,249.64 L 185.97,253.78 L 185.65,254.61 L 185.58,255.12 L 185.62,255.59 L 185.77,255.99 L 186.09,256.29 L 186.48,256.54 L 186.99,256.69 L 187.57,256.76 L 188.14,256.72 L 188.62,256.60 L 189.05,256.40 L 189.39,256.11 L 189.65,255.78 L 190.37,254.60 L 190.68,254.27 L 191.00,253.98 L 191.38,253.76 L 191.85,253.67 L 192.35,253.76 L 192.75,253.96 L 193.08,254.25 L 193.31,254.59 L 193.46,254.99 L 193.61,255.89 L 193.53,260.93 L 193.35,261.27 L 192.97,261.29 L 192.50,261.15 L 191.94,261.04 L 191.40,260.98 L 190.91,261.06 L 190.46,261.21 L 190.07,261.43 L 189.69,261.68 L 189.00,262.40 L 188.00,263.79 L 187.62,264.09 L 187.12,264.32 L 186.42,264.53 L 185.80,264.62 L 183.27,264.53 L 180.55,264.80 L 179.39,264.80 L 178.83,264.71 L 178.32,264.54 L 177.87,264.31 L 177.51,264.04 L 177.29,263.69 L 177.16,263.29 L 177.14,261.81 L 177.08,261.34 L 176.65,259.64 L 176.61,259.18 L 176.63,258.70 L 176.76,258.23 L 177.93,256.23 L 178.08,255.75 L 178.15,255.25 L 178.17,254.75 L 178.08,253.83 L 177.98,253.38 L 177.81,252.99 L 177.61,252.63 L 177.36,252.28 L 177.06,251.97 L 176.67,251.72 L 176.07,251.61 L 175.68,251.78 L 175.34,252.10 L 174.35,253.60 L 173.91,254.04 L 171.28,256.17 L 169.17,258.84 L 168.43,259.25 L 167.61,259.50 L 166.73,259.55 L 165.50,259.74 L 164.75,259.78 L 164.25,259.60 L 163.97,259.29 L 163.74,258.94 L 163.42,258.65 L 162.13,257.98 L 161.74,257.74 L 161.42,257.46 L 160.93,256.76 L 160.74,256.37 L 160.27,255.68 L 156.65,253.01 L 156.20,252.83 L 155.68,252.69 L 155.13,252.66 L 154.57,252.69 L 140.01,255.94 L 133.78,255.76 L 125.71,253.94 L 124.51,253.81 L 122.18,253.93 L 120.97,253.86 L 120.38,253.76 L 119.88,253.58 L 119.48,253.33 L 119.18,253.03 L 118.93,252.69 L 118.73,252.33 L 118.41,251.56 L 118.00,250.82 L 117.68,250.52 L 117.29,250.28 L 115.15,249.41 L 114.34,249.18 L 113.78,249.24 L 109.57,250.93 L 106.97,250.32 L 106.18,249.60 L 105.58,247.49 L 102.95,242.64 L 102.95,242.58 L 103.06,242.21 L 103.31,241.94 L 103.57,241.46 L 103.78,240.82 L 102.76,232.66 L 103.01,230.51 L 104.71,223.97 L 105.48,218.67 L 105.29,217.12 L 104.43,216.68 L 99.16,216.55 L 97.51,216.12 L 97.28,215.76 L 97.13,215.36 L 97.02,214.95 L 96.78,214.45 L 96.46,213.92 L 95.78,213.23 L 95.33,212.94 L 94.85,212.78 L 94.32,212.78 L 93.82,212.86 L 93.37,213.02 L 92.94,213.23 L 91.50,213.64 L 89.95,213.76 L 89.01,213.66 L 88.09,213.42 L 87.59,213.14 L 87.12,212.82 L 86.84,212.55 L 86.26,211.71 L 89.29,210.03 L 90.21,209.05 L 90.32,208.59 L 90.32,208.09 L 90.15,207.62 L 89.72,207.16 L 89.24,206.90 L 88.66,206.76 L 80.42,207.10 L 79.43,207.28 L 78.39,207.61 L 77.71,207.71 L 76.78,207.75 L 75.03,207.61 L 74.21,207.36 L 73.68,207.02 L 73.55,206.62 L 73.52,206.18 L 73.61,205.73 L 73.80,205.29 L 73.97,204.96 L 74.23,204.29 L 74.30,204.15 L 74.22,203.69 L 74.50,203.65 L 75.85,200.08 L 76.59,191.55 L 79.25,188.04 L 83.14,186.89 L 86.05,187.56 L 87.97,187.19 L 88.99,182.93 L 89.00,182.90 L 91.40,182.11 L 96.16,183.62 L 98.73,182.93 L 98.43,179.49 L 98.81,162.01 L 99.03,160.23 L 99.73,159.32 L 100.72,158.51 L 100.88,157.47 L 99.15,155.82 L 100.55,154.68 L 102.07,156.15 L 103.58,157.02 L 105.24,157.48 L 108.56,157.85 L 109.28,158.03 L 109.94,158.03 L 110.97,157.64 L 111.54,156.95 L 111.71,156.09 L 112.14,155.31 L 113.50,154.93 L 115.73,154.65 L 124.90,155.80 L 127.20,155.83 Z"/><path id="r-lattakia" data-region="Lattakia" d="M 72.19,203.99 L 74.22,203.69 L 74.30,204.15 L 74.23,204.29 L 73.97,204.96 L 73.80,205.29 L 73.61,205.73 L 73.52,206.18 L 73.55,206.62 L 73.68,207.02 L 74.21,207.36 L 75.03,207.61 L 76.78,207.75 L 77.71,207.71 L 78.39,207.61 L 79.43,207.28 L 80.42,207.10 L 88.66,206.76 L 89.24,206.90 L 89.72,207.16 L 90.15,207.62 L 90.32,208.09 L 90.32,208.59 L 90.21,209.05 L 89.29,210.03 L 86.26,211.71 L 84.30,213.11 L 83.79,214.17 L 83.59,217.23 L 83.34,217.99 L 83.03,218.52 L 81.19,219.57 L 79.97,220.59 L 79.61,221.22 L 79.56,221.73 L 79.76,222.09 L 81.19,223.69 L 81.62,224.39 L 81.92,225.18 L 82.24,226.53 L 82.58,230.32 L 82.11,238.38 L 79.78,251.70 L 79.86,252.15 L 80.61,254.47 L 82.61,259.16 L 85.72,271.38 L 86.03,276.10 L 81.38,274.21 L 79.76,274.08 L 78.09,274.91 L 77.21,275.26 L 76.72,275.40 L 58.54,276.57 L 57.69,276.40 L 54.21,273.92 L 52.33,272.93 L 47.16,271.50 L 47.13,271.49 L 45.20,268.30 L 46.86,264.24 L 46.27,262.18 L 45.37,254.35 L 45.65,252.61 L 44.43,251.64 L 38.59,245.19 L 36.11,244.18 L 34.90,243.44 L 34.39,242.25 L 33.48,241.57 L 31.53,241.82 L 29.67,242.39 L 29.00,242.71 L 27.70,242.15 L 27.87,240.79 L 28.49,239.13 L 28.61,237.68 L 27.87,237.05 L 23.65,235.20 L 23.86,234.60 L 24.12,233.41 L 24.41,232.73 L 23.65,232.73 L 22.00,233.48 L 22.00,232.73 L 24.42,232.02 L 26.83,230.77 L 28.66,229.02 L 29.37,226.87 L 29.09,225.52 L 28.02,223.86 L 27.78,222.37 L 28.44,221.48 L 31.27,220.71 L 35.92,213.38 L 36.14,212.73 L 36.11,209.91 L 35.61,207.59 L 34.33,204.75 L 32.70,202.10 L 31.09,200.37 L 36.93,200.67 L 39.83,200.12 L 41.06,198.32 L 41.57,195.99 L 44.72,192.14 L 45.87,192.46 L 48.26,192.07 L 50.70,191.34 L 53.06,191.04 L 54.57,192.44 L 54.61,194.00 L 54.25,195.59 L 54.52,197.03 L 55.92,198.02 L 57.79,198.38 L 61.58,198.47 L 65.16,199.83 L 72.19,203.99 Z"/><path id="r-quneitra" data-region="Quneitra" d="M 36.92,564.79 L 36.90,564.71 L 38.60,559.43 L 42.19,553.57 L 44.82,551.31 L 46.24,548.85 L 43.12,546.69 L 40.59,545.83 L 39.07,535.08 L 39.54,531.97 L 42.19,531.68 L 43.69,531.68 L 43.69,530.83 L 43.02,530.83 L 42.56,530.37 L 42.37,529.89 L 42.74,529.43 L 43.40,529.13 L 44.07,528.85 L 44.64,528.57 L 44.72,528.10 L 44.72,526.87 L 44.72,524.89 L 44.26,524.22 L 44.07,523.56 L 43.40,523.20 L 42.94,523.10 L 42.19,523.56 L 41.91,523.56 L 41.52,523.29 L 41.24,522.62 L 41.24,522.06 L 42.00,521.41 L 42.00,520.93 L 41.61,520.27 L 40.30,518.85 L 39.26,517.62 L 38.70,516.21 L 37.84,512.43 L 37.75,511.96 L 37.46,511.59 L 36.80,511.20 L 35.59,511.20 L 34.45,511.11 L 33.70,511.02 L 33.60,510.55 L 33.89,510.36 L 34.45,510.08 L 35.30,509.80 L 36.15,509.22 L 36.70,508.19 L 36.80,507.06 L 36.51,506.02 L 36.46,505.91 L 36.49,505.92 L 41.51,508.10 L 42.78,508.83 L 42.76,509.03 L 42.67,509.23 L 42.07,509.84 L 41.56,510.52 L 41.45,510.70 L 41.28,511.04 L 41.04,511.73 L 40.89,512.45 L 40.85,512.96 L 40.89,513.48 L 40.94,513.71 L 41.07,514.10 L 41.82,515.56 L 42.14,515.85 L 42.39,515.92 L 42.52,515.77 L 42.65,515.60 L 42.82,515.20 L 42.99,514.70 L 42.99,514.68 L 43.06,514.51 L 43.15,514.36 L 43.30,514.21 L 43.47,514.08 L 43.94,513.91 L 44.20,513.86 L 44.51,513.84 L 47.30,514.26 L 48.71,514.32 L 50.25,514.52 L 50.73,514.75 L 51.02,514.96 L 51.07,515.19 L 51.11,515.44 L 51.11,515.97 L 51.00,516.97 L 51.03,518.81 L 51.00,519.37 L 50.81,520.17 L 49.85,524.80 L 49.76,526.05 L 49.89,526.22 L 51.60,527.28 L 51.90,527.54 L 52.26,527.95 L 52.82,528.88 L 52.99,529.37 L 53.03,529.69 L 51.51,531.75 L 50.72,533.30 L 50.58,533.47 L 49.12,541.05 L 49.05,541.96 L 49.65,543.11 L 51.03,544.86 L 51.05,544.91 L 51.07,544.93 L 51.71,546.09 L 52.24,546.74 L 52.73,547.19 L 52.95,547.61 L 53.74,549.75 L 53.89,550.44 L 53.91,550.90 L 53.80,551.09 L 53.65,551.20 L 53.42,551.21 L 53.21,551.16 L 53.01,551.07 L 52.80,550.96 L 52.61,550.82 L 52.48,550.67 L 52.33,550.50 L 52.24,550.31 L 52.11,549.89 L 52.03,549.69 L 51.90,549.52 L 51.71,549.39 L 51.47,549.31 L 50.88,549.24 L 48.75,549.34 L 48.37,549.42 L 48.00,549.58 L 47.49,549.96 L 47.32,550.26 L 47.28,550.53 L 47.38,550.73 L 47.51,550.90 L 47.81,551.20 L 48.00,551.66 L 48.18,552.38 L 48.54,554.75 L 48.48,555.28 L 48.41,555.48 L 47.79,556.21 L 44.17,558.70 L 37.79,563.67 L 36.92,564.79 Z"/><path id="r-rif-dimashq" data-region="Rif Dimashq" d="M 109.27,418.45 L 110.93,418.38 L 112.90,417.56 L 113.57,416.44 L 113.80,415.02 L 114.50,413.31 L 116.87,410.82 L 122.28,406.98 L 125.08,403.07 L 128.49,399.95 L 128.42,399.83 L 130.89,399.23 L 133.82,397.83 L 135.79,397.52 L 138.62,397.51 L 139.20,397.59 L 141.36,398.61 L 149.91,399.54 L 151.00,399.56 L 151.28,399.49 L 155.51,397.48 L 159.16,396.54 L 160.07,396.44 L 160.65,396.46 L 161.34,396.98 L 162.82,398.80 L 162.92,398.99 L 163.31,399.49 L 165.99,402.26 L 167.67,403.66 L 169.47,405.90 L 171.62,407.77 L 172.33,408.56 L 173.12,409.85 L 174.95,412.19 L 175.64,413.29 L 175.79,413.45 L 176.69,414.62 L 176.88,415.00 L 178.09,416.71 L 178.21,416.99 L 178.39,417.35 L 178.77,417.86 L 178.94,417.99 L 179.50,418.35 L 179.67,418.48 L 180.01,418.89 L 180.54,419.71 L 184.70,422.84 L 186.05,423.68 L 186.76,423.99 L 186.80,423.99 L 186.82,424.00 L 186.84,424.01 L 186.91,424.03 L 198.68,429.73 L 199.91,430.07 L 200.48,430.16 L 201.76,430.18 L 204.14,429.92 L 206.56,430.63 L 207.26,431.04 L 207.38,431.21 L 207.48,431.41 L 207.56,431.62 L 207.61,431.85 L 208.38,433.38 L 208.74,433.92 L 208.83,434.08 L 215.12,442.66 L 215.98,443.26 L 217.81,444.30 L 227.50,452.40 L 229.56,453.45 L 230.76,454.23 L 242.47,463.28 L 243.20,464.33 L 244.36,466.65 L 244.55,467.40 L 244.66,467.70 L 244.76,467.88 L 245.45,469.49 L 245.88,470.24 L 246.54,471.88 L 254.71,481.11 L 262.92,486.43 L 266.31,488.04 L 267.50,488.75 L 269.36,489.44 L 273.89,490.39 L 275.10,490.80 L 277.12,491.07 L 277.33,491.15 L 277.56,491.20 L 278.70,491.66 L 279.45,492.05 L 282.51,494.09 L 286.17,496.01 L 335.40,529.04 L 335.45,529.08 L 325.19,534.50 L 304.13,545.63 L 288.73,553.97 L 268.01,565.19 L 247.29,576.39 L 236.16,582.41 L 236.13,582.38 L 234.10,580.15 L 233.01,579.16 L 227.12,575.51 L 210.69,561.55 L 210.37,561.11 L 210.29,561.00 L 210.24,560.82 L 210.12,560.37 L 209.58,554.83 L 209.20,553.64 L 209.04,553.24 L 208.81,552.86 L 208.30,552.19 L 207.46,551.43 L 205.54,550.90 L 202.08,550.77 L 201.49,550.90 L 201.17,551.19 L 200.98,551.30 L 200.78,551.41 L 200.33,551.56 L 200.10,551.60 L 198.55,550.99 L 192.39,547.99 L 192.17,547.24 L 191.96,546.97 L 191.66,546.76 L 191.40,546.50 L 191.28,546.36 L 191.21,546.20 L 191.06,546.02 L 190.97,545.85 L 190.80,545.50 L 190.67,545.33 L 190.35,545.06 L 190.14,544.93 L 190.12,544.91 L 190.10,544.90 L 189.95,544.77 L 189.71,544.49 L 189.45,544.15 L 189.24,543.80 L 189.19,543.63 L 189.17,543.49 L 189.13,542.80 L 189.22,542.38 L 189.24,542.05 L 189.22,541.85 L 189.17,541.64 L 189.09,541.44 L 188.98,541.25 L 188.85,541.08 L 188.68,540.94 L 188.30,540.71 L 186.90,540.03 L 186.27,539.62 L 185.95,539.36 L 185.77,539.23 L 185.15,538.91 L 177.29,537.48 L 176.58,537.47 L 174.50,537.23 L 174.08,537.05 L 171.60,535.50 L 171.28,535.21 L 171.17,535.04 L 171.08,534.84 L 170.93,534.39 L 170.83,533.91 L 170.76,532.84 L 170.42,531.83 L 170.23,531.42 L 170.07,531.16 L 169.82,530.89 L 165.56,527.25 L 165.28,526.94 L 165.09,526.54 L 164.83,525.11 L 164.70,524.69 L 164.21,523.92 L 162.86,522.63 L 162.49,522.39 L 158.97,520.79 L 157.92,520.10 L 156.93,519.25 L 156.39,518.88 L 155.26,517.89 L 155.06,517.77 L 124.47,521.48 L 124.19,520.21 L 124.11,518.24 L 124.06,518.02 L 123.98,517.80 L 123.91,517.59 L 123.68,517.22 L 123.53,517.02 L 119.43,513.03 L 119.18,512.68 L 118.97,512.30 L 118.45,510.82 L 118.26,510.43 L 118.03,510.07 L 117.87,509.84 L 117.64,509.61 L 117.21,509.30 L 116.70,509.29 L 116.29,509.33 L 114.27,510.50 L 113.61,511.22 L 113.22,511.57 L 107.25,514.68 L 107.23,514.69 L 107.21,514.70 L 106.73,514.98 L 103.08,517.77 L 102.69,518.27 L 102.60,518.47 L 102.54,518.69 L 102.43,519.99 L 102.37,520.24 L 102.30,520.45 L 102.18,520.62 L 102.09,520.72 L 101.81,520.89 L 101.58,520.98 L 100.93,520.95 L 99.97,520.81 L 96.85,520.04 L 96.33,519.81 L 96.03,519.50 L 95.67,519.23 L 94.47,518.58 L 94.30,518.43 L 94.19,518.26 L 93.69,517.30 L 93.55,517.13 L 93.40,516.99 L 93.05,516.73 L 92.82,516.64 L 92.30,516.52 L 90.08,516.27 L 89.74,516.18 L 89.52,516.07 L 89.33,515.96 L 89.14,515.83 L 89.01,515.66 L 88.90,515.48 L 88.82,515.26 L 88.69,514.02 L 88.62,513.81 L 88.51,513.61 L 88.36,513.46 L 88.19,513.32 L 88.00,513.20 L 86.71,512.63 L 86.50,512.51 L 86.16,512.25 L 85.57,511.64 L 84.60,510.24 L 84.45,510.08 L 84.28,509.95 L 84.08,509.84 L 83.85,509.77 L 83.49,509.96 L 83.12,510.37 L 82.54,511.49 L 82.37,512.02 L 82.31,512.41 L 82.74,513.76 L 82.80,514.24 L 82.78,514.47 L 82.74,514.65 L 82.74,514.67 L 82.74,514.69 L 82.58,515.17 L 82.39,515.57 L 81.69,516.62 L 81.24,517.58 L 80.10,518.05 L 75.03,519.49 L 73.22,520.30 L 72.71,520.43 L 63.12,521.09 L 62.91,521.19 L 61.13,522.52 L 60.38,522.98 L 59.95,523.16 L 59.20,523.37 L 58.52,523.47 L 56.19,523.43 L 55.41,523.27 L 54.98,522.81 L 54.25,521.65 L 53.76,521.28 L 53.44,521.08 L 50.81,520.17 L 51.00,519.37 L 51.03,518.81 L 51.00,516.97 L 51.11,515.97 L 51.11,515.44 L 51.07,515.19 L 51.02,514.96 L 50.73,514.75 L 50.25,514.52 L 48.71,514.32 L 47.30,514.26 L 44.51,513.84 L 44.20,513.86 L 43.94,513.91 L 43.47,514.08 L 43.30,514.21 L 43.15,514.36 L 43.06,514.51 L 42.99,514.68 L 42.99,514.70 L 42.82,515.20 L 42.65,515.60 L 42.52,515.77 L 42.39,515.92 L 42.14,515.85 L 41.82,515.56 L 41.07,514.10 L 40.94,513.71 L 40.89,513.48 L 40.85,512.96 L 40.89,512.45 L 41.04,511.73 L 41.28,511.04 L 41.45,510.70 L 41.56,510.52 L 42.07,509.84 L 42.67,509.23 L 42.76,509.03 L 42.78,508.83 L 41.51,508.10 L 36.49,505.92 L 36.46,505.91 L 35.49,503.95 L 34.91,502.44 L 34.91,500.83 L 35.49,499.22 L 36.70,497.90 L 38.70,496.68 L 39.72,495.73 L 40.10,494.60 L 39.74,492.79 L 41.96,491.69 L 45.71,489.03 L 47.63,485.18 L 46.00,482.72 L 47.37,481.12 L 50.22,480.35 L 53.06,480.38 L 55.36,479.49 L 57.84,478.12 L 59.71,476.28 L 60.09,474.04 L 59.03,472.68 L 57.01,471.42 L 54.78,470.49 L 53.06,470.09 L 50.23,468.77 L 47.56,468.35 L 45.96,467.52 L 46.42,464.93 L 46.91,464.52 L 48.48,464.02 L 49.06,463.55 L 49.38,462.39 L 49.03,460.20 L 49.21,459.19 L 50.11,458.11 L 52.32,456.41 L 53.06,455.03 L 54.72,452.96 L 58.72,450.11 L 60.34,447.53 L 61.54,446.22 L 63.48,445.55 L 65.73,445.06 L 67.83,444.30 L 72.17,442.09 L 72.97,442.47 L 74.50,444.09 L 75.48,444.60 L 78.00,444.55 L 79.95,443.58 L 81.64,442.43 L 83.48,441.86 L 85.57,442.19 L 91.79,444.74 L 96.35,445.64 L 98.67,445.33 L 100.13,443.73 L 99.90,441.25 L 97.81,440.18 L 93.06,439.50 L 89.50,437.19 L 88.74,436.45 L 87.96,435.30 L 87.75,434.86 L 90.34,430.49 L 92.00,428.33 L 93.90,426.38 L 98.71,422.87 L 102.73,418.62 L 105.28,417.54 L 106.67,417.64 L 109.27,418.45 Z M 93.73,489.23 L 94.15,487.75 L 96.93,485.40 L 98.02,482.75 L 97.78,480.50 L 97.90,479.18 L 95.95,476.97 L 92.58,476.73 L 85.86,478.40 L 82.24,478.50 L 77.59,480.67 L 78.51,482.88 L 80.41,482.68 L 83.29,483.85 L 80.72,486.11 L 81.36,487.33 L 84.08,485.80 L 91.42,488.89 L 93.73,489.23 Z"/><path id="r-tartus" data-region="Tartus" d="M 62.79,348.10 L 60.03,348.04 L 57.41,347.41 L 55.30,345.99 L 54.41,345.65 L 53.35,345.40 L 51.81,345.45 L 51.29,343.20 L 49.09,339.44 L 48.30,336.21 L 47.12,334.43 L 46.86,333.36 L 46.86,328.42 L 46.50,327.66 L 44.38,324.66 L 43.90,323.45 L 43.24,320.91 L 39.35,312.27 L 40.08,311.95 L 40.15,311.38 L 40.88,310.60 L 41.10,309.77 L 40.88,308.93 L 40.15,308.15 L 40.15,307.32 L 40.76,306.79 L 40.80,306.72 L 40.53,306.54 L 40.15,305.67 L 41.13,303.97 L 41.83,303.09 L 42.79,302.29 L 43.42,300.46 L 43.03,298.69 L 42.32,297.07 L 41.89,295.69 L 41.89,289.91 L 42.65,288.47 L 48.34,281.28 L 50.90,279.18 L 49.80,275.93 L 47.13,271.49 L 47.16,271.50 L 52.33,272.93 L 54.21,273.92 L 57.69,276.40 L 58.54,276.57 L 76.72,275.40 L 77.21,275.26 L 78.09,274.91 L 79.76,274.08 L 81.38,274.21 L 86.03,276.10 L 86.11,278.40 L 87.49,292.65 L 87.51,294.51 L 86.52,297.32 L 86.14,298.01 L 85.72,298.46 L 84.90,298.93 L 84.47,299.24 L 83.64,300.04 L 83.18,300.25 L 81.47,300.37 L 80.98,300.51 L 80.23,300.98 L 79.76,301.13 L 78.68,301.27 L 78.16,301.39 L 77.73,301.57 L 76.98,302.06 L 76.59,302.26 L 76.12,302.35 L 75.60,302.34 L 74.47,302.15 L 73.25,302.20 L 71.99,302.84 L 72.86,306.09 L 78.50,307.01 L 80.46,307.09 L 85.11,306.73 L 86.18,306.93 L 86.89,307.19 L 87.62,308.69 L 88.11,310.37 L 88.47,311.14 L 88.71,311.48 L 89.18,311.86 L 92.27,313.66 L 92.86,314.28 L 93.31,315.09 L 91.09,315.65 L 90.15,315.98 L 89.76,316.21 L 89.57,316.34 L 89.26,316.64 L 89.09,316.98 L 88.88,317.47 L 88.62,318.53 L 88.54,319.08 L 88.52,319.49 L 88.75,320.65 L 88.77,321.46 L 88.73,321.71 L 88.51,322.07 L 88.11,322.48 L 84.97,324.73 L 83.08,326.72 L 82.58,327.14 L 82.16,327.40 L 81.38,327.58 L 81.15,327.67 L 80.96,327.79 L 80.79,327.93 L 78.00,331.08 L 69.74,343.40 L 69.48,344.23 L 69.29,346.63 L 69.01,347.88 L 69.00,347.91 L 65.99,347.73 L 62.79,348.10 Z"/><path id="r-undof" data-region="UNDOF" d="M 26.13,575.85 L 29.35,571.79 L 35.40,565.74 L 36.33,562.64 L 35.86,561.14 L 37.27,557.53 L 39.35,554.52 L 40.21,554.33 L 41.91,551.60 L 39.07,547.63 L 38.40,546.12 L 36.80,534.61 L 37.17,533.01 L 32.65,531.41 L 32.65,529.61 L 33.98,527.82 L 35.30,525.46 L 34.91,521.97 L 32.19,520.55 L 31.70,514.90 L 28.31,512.91 L 27.46,511.96 L 31.51,507.15 L 26.89,504.50 L 29.54,503.48 L 30.48,502.63 L 32.46,501.41 L 32.75,499.79 L 33.13,499.13 L 33.31,497.15 L 33.98,496.41 L 33.81,495.76 L 36.72,494.31 L 39.74,492.79 L 40.10,494.60 L 39.72,495.73 L 38.70,496.68 L 36.70,497.90 L 35.49,499.22 L 34.91,500.83 L 34.91,502.44 L 35.49,503.95 L 36.46,505.91 L 36.51,506.02 L 36.80,507.06 L 36.70,508.19 L 36.15,509.22 L 35.30,509.80 L 34.45,510.08 L 33.89,510.36 L 33.60,510.55 L 33.70,511.02 L 34.45,511.11 L 35.59,511.20 L 36.80,511.20 L 37.46,511.59 L 37.75,511.96 L 37.84,512.43 L 38.70,516.21 L 39.26,517.62 L 40.30,518.85 L 41.61,520.27 L 42.00,520.93 L 42.00,521.41 L 41.24,522.06 L 41.24,522.62 L 41.52,523.29 L 41.91,523.56 L 42.19,523.56 L 42.94,523.10 L 43.40,523.20 L 44.07,523.56 L 44.26,524.22 L 44.72,524.89 L 44.72,526.87 L 44.72,528.10 L 44.64,528.57 L 44.07,528.85 L 43.40,529.13 L 42.74,529.43 L 42.37,529.89 L 42.56,530.37 L 43.02,530.83 L 43.69,530.83 L 43.69,531.68 L 42.19,531.68 L 39.54,531.97 L 39.07,535.08 L 40.59,545.83 L 43.12,546.69 L 46.24,548.85 L 44.82,551.31 L 42.19,553.57 L 38.60,559.43 L 36.90,564.71 L 36.92,564.79 L 37.09,565.46 L 36.43,566.50 L 33.89,569.62 L 33.13,570.75 L 32.19,571.22 L 30.19,572.25 L 27.60,575.40 L 26.89,575.53 L 26.13,575.85 Z"/></g></svg>