<svg xmlns="http://www.w3.org/2000/svg" viewBox="0 0 1000 650" role="img" aria-label="XK first-level administrative map"><g fill="#e2e3e5" stroke="#fff" stroke-width="1.5" stroke-linejoin="round"><path id="r-de-ani" data-region="Dečani" d="M 76.51,350.55 L 69.31,343.75 L 48.00,335.05 L 39.17,327.90 L 44.33,322.28 L 44.82,316.73 L 43.63,310.73 L 43.76,303.84 L 45.26,300.36 L 50.11,293.48 L 55.81,282.48 L 70.90,290.18 L 93.90,291.27 L 90.61,298.94 L 97.18,304.41 L 107.04,307.70 L 120.18,309.89 L 130.03,313.17 L 139.89,308.79 L 149.74,310.98 L 154.12,317.55 L 159.60,327.41 L 167.26,332.88 L 181.50,328.50 L 190.26,327.41 L 199.02,330.69 L 191.35,339.45 L 178.21,343.83 L 174.93,355.88 L 170.55,363.54 L 159.60,366.83 L 150.84,364.64 L 142.08,374.49 L 122.37,370.11 L 99.37,362.45 L 92.80,349.31 L 76.64,350.68 L 76.60,350.59 L 76.60,350.55 L 76.51,350.55 Z"/><path id="r-draga" data-region="Dragaš" d="M 253.63,615.54 L 253.89,612.41 L 251.73,607.15 L 251.64,604.05 L 253.67,598.89 L 256.27,596.54 L 259.36,594.81 L 262.85,591.46 L 267.35,583.64 L 267.35,578.23 L 265.23,572.61 L 263.25,564.10 L 249.83,537.85 L 247.23,529.87 L 260.34,517.94 L 273.48,508.08 L 288.81,504.80 L 305.24,503.70 L 318.38,506.99 L 330.42,508.08 L 339.18,506.99 L 344.66,514.66 L 346.62,526.35 L 338.28,533.91 L 334.00,543.12 L 328.75,564.17 L 328.22,573.87 L 332.33,586.86 L 333.60,590.89 L 332.16,599.73 L 331.92,601.19 L 327.42,609.20 L 320.32,618.35 L 316.51,621.53 L 311.62,625.62 L 302.44,628.00 L 298.34,625.74 L 290.22,617.21 L 286.20,615.34 L 283.46,616.75 L 278.83,623.22 L 275.65,625.22 L 268.68,625.50 L 263.51,623.42 L 253.63,615.54 Z"/><path id="r-glogovac" data-region="Glogovac" d="M 346.93,338.20 L 349.36,333.66 L 349.80,320.15 L 347.59,312.03 L 346.97,306.03 L 342.47,301.17 L 335.63,301.14 L 337.44,295.61 L 346.27,282.72 L 353.68,277.78 L 356.86,272.84 L 357.30,268.78 L 362.51,263.66 L 379.63,270.99 L 385.81,265.07 L 391.38,262.60 L 400.21,261.19 L 406.82,257.83 L 416.18,265.07 L 425.98,269.13 L 413.64,273.75 L 413.64,280.32 L 416.93,289.08 L 425.69,294.56 L 421.31,303.32 L 414.74,308.79 L 423.50,314.27 L 427.88,319.74 L 416.93,327.41 L 414.74,335.07 L 405.98,339.45 L 396.12,339.45 L 388.46,346.02 L 378.75,349.10 L 375.34,340.32 L 372.21,335.22 L 364.63,344.16 L 351.30,339.92 L 346.93,338.20 Z"/><path id="r-gnjilane" data-region="Gnjilane" d="M 651.69,459.47 L 644.10,455.57 L 646.88,442.38 L 641.41,431.43 L 635.93,424.86 L 631.55,417.20 L 627.17,408.44 L 612.94,406.25 L 604.04,395.89 L 596.51,389.82 L 588.84,386.54 L 584.46,378.87 L 569.07,383.97 L 555.99,389.82 L 545.04,370.11 L 547.73,361.86 L 559.89,360.93 L 562.62,354.03 L 558.70,346.19 L 553.60,338.36 L 555.17,331.70 L 563.77,323.68 L 575.70,327.41 L 585.56,325.22 L 594.32,331.79 L 601.98,336.17 L 611.84,331.79 L 609.65,321.93 L 618.41,318.65 L 626.08,323.03 L 637.03,323.03 L 645.79,335.07 L 655.64,342.74 L 665.50,352.59 L 662.21,362.45 L 680.38,366.20 L 693.19,369.47 L 702.80,369.54 L 701.92,376.08 L 704.04,389.64 L 702.14,396.27 L 693.27,402.49 L 667.93,408.24 L 658.84,415.36 L 658.35,425.66 L 674.99,444.38 L 679.35,456.21 L 678.39,455.84 L 660.47,459.31 L 651.69,459.47 Z"/><path id="r-istok" data-region="Istok" d="M 158.91,208.03 L 194.22,202.40 L 214.83,196.04 L 224.45,186.50 L 222.55,182.40 L 227.45,182.80 L 252.35,184.56 L 264.26,190.04 L 273.53,198.69 L 280.77,209.90 L 286.95,224.82 L 285.01,235.50 L 282.01,242.47 L 276.97,253.06 L 277.77,263.66 L 266.91,263.90 L 254.86,267.18 L 248.29,273.75 L 234.06,275.94 L 219.82,272.66 L 206.68,275.94 L 197.92,272.66 L 183.69,272.66 L 169.45,267.18 L 158.50,259.52 L 153.03,252.95 L 153.03,242.00 L 153.03,229.95 L 153.03,219.00 L 147.73,209.44 L 158.91,208.03 Z"/><path id="r-ka-anik" data-region="Kačanik" d="M 592.47,467.39 L 589.55,469.15 L 564.43,497.77 L 563.90,501.53 L 564.79,503.82 L 566.07,506.12 L 566.73,509.76 L 567.13,518.42 L 566.93,519.35 L 566.29,522.35 L 561.83,523.08 L 543.41,520.32 L 540.03,519.81 L 536.39,517.05 L 534.73,515.78 L 530.80,509.65 L 523.83,501.11 L 508.69,490.05 L 492.45,480.71 L 486.71,478.37 L 483.84,477.77 L 480.53,477.71 L 478.25,468.66 L 478.25,462.09 L 484.82,459.90 L 491.39,455.52 L 491.39,452.24 L 485.91,443.48 L 496.86,443.48 L 502.34,445.67 L 511.10,442.38 L 518.76,442.38 L 522.05,432.53 L 530.81,428.15 L 542.85,425.96 L 550.47,423.37 L 552.04,427.29 L 544.59,436.69 L 543.42,443.75 L 554.39,454.72 L 569.28,458.63 L 580.64,459.42 L 592.37,467.22 L 592.47,467.39 Z"/><path id="r-klina" data-region="Klina" d="M 277.77,263.66 L 287.74,273.28 L 296.13,277.07 L 303.54,278.31 L 308.84,286.96 L 311.49,296.67 L 325.79,301.08 L 335.63,301.14 L 317.28,321.93 L 303.05,321.93 L 274.94,337.81 L 253.94,343.19 L 242.46,346.99 L 226.39,337.26 L 224.20,327.41 L 219.82,319.74 L 211.06,313.17 L 209.97,305.51 L 216.54,298.94 L 219.82,292.37 L 211.06,287.99 L 206.68,275.94 L 219.82,272.66 L 234.06,275.94 L 248.29,273.75 L 254.86,267.18 L 266.91,263.90 L 277.77,263.66 Z"/><path id="r-kosovo-polje" data-region="Kosovo Polje" d="M 447.59,290.18 L 460.73,290.18 L 469.49,289.08 L 481.53,282.51 L 483.72,294.56 L 487.01,300.03 L 481.53,307.70 L 473.87,316.46 L 461.82,319.74 L 447.59,317.55 L 437.73,320.84 L 427.88,319.74 L 423.50,314.27 L 414.74,308.79 L 421.31,303.32 L 425.69,294.56 L 431.16,292.37 L 431.16,285.80 L 437.73,283.61 L 447.59,290.18 Z"/><path id="r-kosovska-kamenica" data-region="Kosovska Kamenica" d="M 643.25,248.68 L 670.14,251.43 L 679.85,253.84 L 686.38,258.10 L 700.11,270.83 L 707.26,274.33 L 713.52,274.28 L 732.02,268.08 L 741.20,267.93 L 753.91,270.08 L 756.30,271.24 L 764.90,275.43 L 768.47,284.87 L 766.05,288.63 L 761.54,290.80 L 756.43,292.50 L 752.23,294.81 L 752.59,296.07 L 750.25,304.72 L 749.72,305.88 L 748.92,306.70 L 746.01,307.77 L 745.21,309.00 L 745.83,310.85 L 748.83,314.58 L 749.23,316.20 L 744.95,326.02 L 723.68,352.09 L 706.60,364.78 L 702.80,369.54 L 693.19,369.47 L 680.38,366.20 L 662.21,362.45 L 665.50,352.59 L 655.64,342.74 L 645.79,335.07 L 637.03,323.03 L 643.60,315.36 L 638.12,306.60 L 631.55,303.32 L 619.51,297.84 L 625.58,293.53 L 630.24,287.40 L 625.09,280.30 L 612.35,273.44 L 608.92,265.60 L 623.80,265.07 L 632.93,265.11 L 643.25,248.68 Z"/><path id="r-kosovska-mitrovica" data-region="Kosovska Mitrovica" d="M 436.66,111.12 L 442.31,115.09 L 450.08,123.83 L 463.41,144.31 L 467.73,160.55 L 462.26,167.35 L 450.87,165.34 L 439.92,167.53 L 426.78,163.15 L 420.21,165.34 L 424.59,174.10 L 420.21,183.96 L 410.36,182.87 L 402.69,187.25 L 401.60,200.39 L 401.60,206.96 L 391.74,206.96 L 380.79,209.15 L 367.65,216.81 L 353.42,215.72 L 344.66,215.72 L 329.33,206.96 L 320.57,197.10 L 329.33,192.72 L 338.09,191.63 L 349.04,178.49 L 366.56,179.58 L 377.51,181.77 L 381.89,173.01 L 382.98,160.96 L 369.84,155.49 L 358.89,146.73 L 377.51,140.16 L 386.27,127.02 L 396.12,130.30 L 405.98,129.21 L 411.45,123.73 L 421.31,118.26 L 424.59,111.69 L 436.66,111.12 Z"/><path id="r-leposavi" data-region="Leposavić" d="M 350.68,22.00 L 357.21,23.48 L 361.36,24.42 L 369.48,29.35 L 373.76,32.65 L 376.59,35.51 L 380.69,41.53 L 379.37,41.45 L 375.04,40.47 L 370.15,43.77 L 370.41,45.95 L 369.75,52.16 L 368.47,57.72 L 366.75,58.07 L 369.53,61.55 L 401.10,75.07 L 435.67,89.87 L 433.13,97.70 L 433.04,105.74 L 436.66,111.12 L 424.59,111.69 L 421.31,118.26 L 411.45,123.73 L 405.98,129.21 L 396.12,130.30 L 386.27,127.02 L 377.51,140.16 L 358.89,146.73 L 355.61,141.25 L 352.32,133.59 L 342.47,128.11 L 329.33,122.64 L 311.81,122.64 L 303.05,114.97 L 286.38,112.03 L 295.38,97.87 L 297.19,87.45 L 294.06,84.83 L 289.73,84.67 L 285.14,85.11 L 281.34,84.27 L 278.78,81.51 L 276.44,77.40 L 272.83,68.18 L 267.71,60.11 L 266.60,55.36 L 269.38,49.81 L 272.91,47.96 L 286.82,47.52 L 296.26,44.81 L 329.72,26.36 L 340.04,22.95 L 350.68,22.00 Z"/><path id="r-lipljan" data-region="Lipljan" d="M 378.75,349.10 L 388.46,346.02 L 396.12,339.45 L 405.98,339.45 L 414.74,335.07 L 416.93,327.41 L 427.88,319.74 L 437.73,320.84 L 447.59,317.55 L 461.82,319.74 L 473.87,316.46 L 480.44,318.65 L 487.01,324.12 L 499.05,319.74 L 506.72,323.03 L 520.95,325.22 L 531.90,321.93 L 531.90,313.17 L 531.90,303.32 L 538.47,301.13 L 552.71,303.32 L 564.75,307.70 L 577.89,313.09 L 569.24,317.33 L 563.77,323.68 L 555.17,331.70 L 553.60,338.36 L 558.70,346.19 L 562.62,354.03 L 559.89,360.93 L 547.73,361.86 L 545.04,370.11 L 525.33,370.11 L 505.62,371.21 L 489.20,369.02 L 479.34,369.02 L 468.39,363.54 L 461.82,367.92 L 447.59,366.83 L 432.26,363.54 L 420.21,362.45 L 408.17,361.35 L 392.84,367.92 L 386.20,360.92 L 375.32,359.16 L 378.75,349.10 Z"/><path id="r-mali-evo" data-region="Mališevo" d="M 335.63,301.14 L 342.47,301.17 L 346.97,306.03 L 347.59,312.03 L 349.80,320.15 L 349.36,333.66 L 346.93,338.20 L 351.30,339.92 L 364.63,344.16 L 372.21,335.22 L 375.34,340.32 L 378.75,349.10 L 375.32,359.16 L 375.32,363.54 L 380.79,371.21 L 382.98,381.06 L 370.94,379.97 L 359.99,384.35 L 352.32,382.16 L 343.56,383.25 L 334.80,388.73 L 334.80,397.49 L 317.28,398.58 L 308.52,394.20 L 298.67,388.73 L 292.10,375.59 L 294.29,365.73 L 287.72,358.07 L 277.86,358.07 L 264.72,359.16 L 255.96,356.97 L 242.46,346.99 L 253.94,343.19 L 274.94,337.81 L 303.05,321.93 L 317.28,321.93 L 335.63,301.14 Z"/><path id="r-novo-brdo" data-region="Novo Brdo" d="M 626.08,323.03 L 618.41,318.65 L 609.65,321.93 L 611.84,331.79 L 601.98,336.17 L 594.32,331.79 L 585.56,325.22 L 575.70,327.41 L 563.77,323.68 L 569.24,317.33 L 577.89,313.09 L 586.55,305.14 L 594.72,298.43 L 603.53,298.43 L 619.51,297.84 L 631.55,303.32 L 638.12,306.60 L 643.60,315.36 L 637.03,323.03 L 626.08,323.03 Z"/><path id="r-obili" data-region="Obilić" d="M 480.07,222.00 L 482.63,227.76 L 485.91,235.43 L 476.06,244.19 L 474.96,254.04 L 480.44,263.90 L 483.72,271.56 L 481.53,282.51 L 469.49,289.08 L 460.73,290.18 L 447.59,290.18 L 437.73,283.61 L 431.16,285.80 L 431.16,292.37 L 425.69,294.56 L 416.93,289.08 L 413.64,280.32 L 413.64,273.75 L 425.98,269.13 L 445.84,263.66 L 456.87,255.80 L 457.84,249.53 L 462.52,238.41 L 469.85,226.23 L 480.07,222.00 Z"/><path id="r-orahovac" data-region="Orahovac" d="M 259.41,434.55 L 266.82,425.99 L 259.41,421.13 L 252.35,417.69 L 238.93,410.54 L 228.95,399.86 L 229.04,386.53 L 229.40,372.76 L 227.63,361.11 L 232.13,351.93 L 242.46,346.99 L 255.96,356.97 L 264.72,359.16 L 277.86,358.07 L 287.72,358.07 L 294.29,365.73 L 292.10,375.59 L 298.67,388.73 L 308.52,394.20 L 317.28,398.58 L 315.09,407.34 L 312.90,421.58 L 307.43,431.43 L 299.76,430.34 L 295.38,425.96 L 289.91,422.67 L 283.34,430.34 L 276.76,439.10 L 269.10,438.00 L 259.41,434.55 Z"/><path id="r-pe" data-region="Peć" d="M 89.75,244.30 L 100.43,235.43 L 101.09,231.29 L 100.43,227.40 L 100.78,223.29 L 104.36,218.58 L 107.98,216.86 L 124.35,212.38 L 147.73,209.44 L 153.03,219.00 L 153.03,229.95 L 153.03,242.00 L 153.03,252.95 L 158.50,259.52 L 169.45,267.18 L 183.69,272.66 L 197.92,272.66 L 206.68,275.94 L 211.06,287.99 L 219.82,292.37 L 216.54,298.94 L 209.97,305.51 L 211.06,313.17 L 219.82,319.74 L 224.20,327.41 L 226.39,337.26 L 213.25,330.69 L 199.02,330.69 L 190.26,327.41 L 181.50,328.50 L 167.26,332.88 L 159.60,327.41 L 154.12,317.55 L 149.74,310.98 L 139.89,308.79 L 130.03,313.17 L 120.18,309.89 L 107.04,307.70 L 97.18,304.41 L 90.61,298.94 L 93.90,291.27 L 70.90,290.18 L 55.81,282.48 L 54.97,280.96 L 51.66,276.56 L 27.23,259.31 L 26.85,259.04 L 22.00,252.46 L 22.75,244.00 L 26.24,240.50 L 35.19,235.18 L 39.21,232.79 L 44.02,231.09 L 59.30,234.04 L 75.27,241.16 L 89.75,244.30 Z"/><path id="r-podujevo" data-region="Podujevo" d="M 435.67,89.87 L 440.68,92.01 L 449.50,94.47 L 478.01,95.62 L 484.81,99.51 L 491.43,109.46 L 497.96,131.85 L 501.63,137.49 L 509.09,140.70 L 515.09,138.36 L 520.91,135.24 L 528.06,136.10 L 534.69,145.64 L 535.30,158.89 L 537.73,172.39 L 549.74,182.79 L 554.46,183.76 L 564.43,183.71 L 569.29,184.54 L 573.83,186.61 L 582.13,191.79 L 586.55,193.77 L 600.23,196.14 L 608.83,196.45 L 612.89,199.68 L 612.89,201.93 L 612.85,210.89 L 611.04,218.05 L 605.26,232.39 L 603.80,238.98 L 591.03,238.71 L 583.37,232.14 L 574.61,226.67 L 568.04,217.91 L 551.61,223.38 L 538.47,226.67 L 534.09,233.24 L 526.43,234.33 L 520.95,238.71 L 513.29,235.43 L 508.91,228.86 L 503.43,224.48 L 499.05,231.05 L 493.58,235.43 L 485.91,235.43 L 482.63,227.76 L 480.07,222.00 L 479.74,211.40 L 474.53,202.13 L 465.61,194.45 L 461.99,188.01 L 459.96,176.80 L 462.26,167.35 L 467.73,160.55 L 463.41,144.31 L 450.08,123.83 L 442.31,115.09 L 436.66,111.12 L 433.04,105.74 L 433.13,97.70 L 435.67,89.87 Z"/><path id="r-prizren" data-region="Prizren" d="M 247.23,529.87 L 247.14,516.20 L 246.03,508.66 L 241.44,497.28 L 225.29,471.18 L 217.13,462.86 L 213.71,460.12 L 231.16,446.56 L 240.25,441.35 L 259.41,434.55 L 269.10,438.00 L 276.76,439.10 L 283.34,430.34 L 289.91,422.67 L 295.38,425.96 L 299.76,430.34 L 307.43,431.43 L 312.90,421.58 L 322.76,422.67 L 328.23,431.43 L 333.71,436.91 L 335.90,443.48 L 349.04,450.05 L 364.37,450.05 L 375.32,451.14 L 376.99,462.09 L 374.16,467.39 L 373.10,474.45 L 377.42,480.95 L 390.27,484.40 L 402.18,485.34 L 409.70,486.91 L 418.17,490.67 L 426.07,497.75 L 427.81,503.71 L 427.86,503.88 L 397.55,511.56 L 357.57,521.70 L 346.62,526.35 L 344.66,514.66 L 339.18,506.99 L 330.42,508.08 L 318.38,506.99 L 305.24,503.70 L 288.81,504.80 L 273.48,508.08 L 260.34,517.94 L 247.23,529.87 Z"/><path id="r-pri-tina" data-region="Priština" d="M 603.80,238.98 L 602.43,241.11 L 600.40,242.38 L 600.18,243.61 L 604.46,245.78 L 611.66,247.38 L 616.89,247.27 L 627.15,247.04 L 643.25,248.68 L 632.93,265.11 L 623.80,265.07 L 608.92,265.60 L 612.35,273.44 L 625.09,280.30 L 630.24,287.40 L 625.58,293.53 L 619.51,297.84 L 603.53,298.43 L 594.72,298.43 L 586.55,305.14 L 577.89,313.09 L 564.75,307.70 L 552.71,303.32 L 538.47,301.13 L 531.90,303.32 L 531.90,313.17 L 531.90,321.93 L 520.95,325.22 L 506.72,323.03 L 499.05,319.74 L 487.01,324.12 L 480.44,318.65 L 473.87,316.46 L 481.53,307.70 L 487.01,300.03 L 483.72,294.56 L 481.53,282.51 L 483.72,271.56 L 480.44,263.90 L 474.96,254.04 L 476.06,244.19 L 485.91,235.43 L 493.58,235.43 L 499.05,231.05 L 503.43,224.48 L 508.91,228.86 L 513.29,235.43 L 520.95,238.71 L 526.43,234.33 L 534.09,233.24 L 538.47,226.67 L 551.61,223.38 L 568.04,217.91 L 574.61,226.67 L 583.37,232.14 L 591.03,238.71 L 603.80,238.98 Z"/><path id="r-srbica" data-region="Srbica" d="M 277.77,263.66 L 276.97,253.06 L 282.01,242.47 L 285.01,235.50 L 286.95,224.82 L 280.77,209.90 L 288.81,201.48 L 295.38,200.39 L 305.24,201.48 L 314.00,212.43 L 321.66,221.19 L 328.23,222.29 L 329.33,206.96 L 344.66,215.72 L 353.42,215.72 L 367.65,216.81 L 375.32,226.67 L 374.22,235.43 L 373.13,245.28 L 378.60,246.38 L 388.46,245.28 L 396.12,247.47 L 406.82,257.83 L 400.21,261.19 L 391.38,262.60 L 385.81,265.07 L 379.63,270.99 L 362.51,263.66 L 357.30,268.78 L 356.86,272.84 L 353.68,277.78 L 346.27,282.72 L 337.44,295.61 L 335.63,301.14 L 325.79,301.08 L 311.49,296.67 L 308.84,286.96 L 303.54,278.31 L 296.13,277.07 L 287.74,273.28 L 277.77,263.66 Z"/><path id="r-suva-reka" data-region="Suva Reka" d="M 312.90,421.58 L 315.09,407.34 L 317.28,398.58 L 334.80,397.49 L 334.80,388.73 L 343.56,383.25 L 352.32,382.16 L 359.99,384.35 L 370.94,379.97 L 382.98,381.06 L 380.79,371.21 L 375.32,363.54 L 375.32,359.16 L 386.20,360.92 L 392.84,367.92 L 398.73,374.08 L 411.27,378.79 L 417.85,386.93 L 411.58,394.77 L 412.84,400.72 L 409.39,405.42 L 415.83,409.53 L 421.30,417.33 L 422.55,424.23 L 421.93,430.81 L 423.81,436.76 L 423.18,442.09 L 422.54,447.97 L 408.06,451.15 L 402.41,455.74 L 397.82,459.27 L 389.35,461.74 L 381.93,462.80 L 376.99,462.09 L 375.32,451.14 L 364.37,450.05 L 349.04,450.05 L 335.90,443.48 L 333.71,436.91 L 328.23,431.43 L 322.76,422.67 L 312.90,421.58 Z"/><path id="r-uro-evac" data-region="Uroševac" d="M 485.91,443.48 L 476.06,441.29 L 471.68,435.81 L 464.01,432.53 L 459.63,425.96 L 451.97,425.96 L 451.97,434.72 L 453.06,441.29 L 447.59,441.29 L 439.92,436.91 L 429.60,434.55 L 423.81,436.76 L 421.93,430.81 L 422.55,424.23 L 421.30,417.33 L 415.83,409.53 L 426.15,407.10 L 446.49,405.15 L 458.54,404.06 L 461.82,397.49 L 462.92,388.73 L 469.49,384.35 L 477.15,377.78 L 479.34,369.02 L 489.20,369.02 L 505.62,371.21 L 525.33,370.11 L 545.04,370.11 L 555.99,389.82 L 561.05,410.05 L 537.15,412.01 L 537.15,420.63 L 542.85,425.96 L 530.81,428.15 L 522.05,432.53 L 518.76,442.38 L 511.10,442.38 L 502.34,445.67 L 496.86,443.48 L 485.91,443.48 Z"/><path id="r-vitina" data-region="Vitina" d="M 644.10,455.57 L 640.03,459.27 L 638.14,460.98 L 633.73,460.16 L 629.75,457.13 L 624.81,455.96 L 617.79,458.87 L 618.46,462.59 L 621.55,466.34 L 622.03,469.21 L 617.44,469.56 L 602.57,465.33 L 595.11,465.79 L 592.47,467.39 L 592.37,467.22 L 580.64,459.42 L 569.28,458.63 L 554.39,454.72 L 543.42,443.75 L 544.59,436.69 L 552.04,427.29 L 550.47,423.37 L 542.85,425.96 L 537.15,420.63 L 537.15,412.01 L 561.05,410.05 L 555.99,389.82 L 569.07,383.97 L 584.46,378.87 L 588.84,386.54 L 596.51,389.82 L 604.04,395.89 L 612.94,406.25 L 627.17,408.44 L 631.55,417.20 L 635.93,424.86 L 641.41,431.43 L 646.88,442.38 L 644.10,455.57 Z"/><path id="r-vu-itrn" data-region="Vučitrn" d="M 426.78,163.15 L 439.92,167.53 L 450.87,165.34 L 462.26,167.35 L 459.96,176.80 L 461.99,188.01 L 465.61,194.45 L 474.53,202.13 L 479.74,211.40 L 480.07,222.00 L 469.85,226.23 L 462.52,238.41 L 457.84,249.53 L 456.87,255.80 L 445.84,263.66 L 425.98,269.13 L 416.18,265.07 L 406.82,257.83 L 396.12,247.47 L 388.46,245.28 L 378.60,246.38 L 373.13,245.28 L 374.22,235.43 L 375.32,226.67 L 367.65,216.81 L 380.79,209.15 L 391.74,206.96 L 401.60,206.96 L 401.60,200.39 L 402.69,187.25 L 410.36,182.87 L 420.21,183.96 L 424.59,174.10 L 420.21,165.34 L 426.78,163.15 Z"/><path id="r-zubin-potok" data-region="Zubin Potok" d="M 260.95,131.39 L 266.12,131.31 L 275.03,124.89 L 296.48,128.11 L 314.00,136.87 L 322.76,143.44 L 319.47,150.01 L 328.23,157.68 L 340.28,171.91 L 349.04,178.49 L 338.09,191.63 L 329.33,192.72 L 320.57,197.10 L 329.33,206.96 L 328.23,222.29 L 321.66,221.19 L 314.00,212.43 L 305.24,201.48 L 295.38,200.39 L 288.81,201.48 L 280.77,209.90 L 273.53,198.69 L 264.26,190.04 L 252.35,184.56 L 227.45,182.80 L 222.55,182.40 L 220.22,177.39 L 210.73,172.99 L 204.02,167.64 L 207.64,155.69 L 214.87,148.70 L 222.16,147.07 L 229.70,147.07 L 237.96,144.95 L 241.36,142.60 L 243.70,139.79 L 247.76,133.23 L 251.60,130.29 L 256.05,130.35 L 260.95,131.39 Z"/><path id="r-zve-an" data-region="Zvečan" d="M 275.03,124.89 L 286.38,112.03 L 303.05,114.97 L 311.81,122.64 L 329.33,122.64 L 342.47,128.11 L 352.32,133.59 L 355.61,141.25 L 358.89,146.73 L 369.84,155.49 L 382.98,160.96 L 381.89,173.01 L 377.51,181.77 L 366.56,179.58 L 349.04,178.49 L 340.28,171.91 L 328.23,157.68 L 319.47,150.01 L 322.76,143.44 L 314.00,136.87 L 296.48,128.11 L 275.03,124.89 Z"/><path id="r-akovica" data-region="Đakovica" d="M 118.04,425.33 L 112.96,424.76 L 109.48,421.86 L 105.77,414.87 L 105.15,411.83 L 105.90,406.06 L 104.89,402.76 L 102.42,400.17 L 95.75,395.93 L 93.77,393.26 L 94.29,390.53 L 98.71,385.52 L 98.84,381.99 L 96.72,378.70 L 90.98,374.58 L 88.65,372.16 L 76.64,350.68 L 92.80,349.31 L 99.37,362.45 L 122.37,370.11 L 142.08,374.49 L 150.84,364.64 L 159.60,366.83 L 170.55,363.54 L 174.93,355.88 L 178.21,343.83 L 191.35,339.45 L 199.02,330.69 L 213.25,330.69 L 226.39,337.26 L 242.46,346.99 L 232.13,351.93 L 227.63,361.11 L 229.40,372.76 L 229.04,386.53 L 228.95,399.86 L 238.93,410.54 L 252.35,417.69 L 259.41,421.13 L 266.82,425.99 L 259.41,434.55 L 240.25,441.35 L 231.16,446.56 L 213.71,460.12 L 206.58,454.41 L 153.79,425.64 L 147.21,424.81 L 118.04,425.33 Z"/><path id="r-timlje" data-region="Štimlje" d="M 479.34,369.02 L 477.15,377.78 L 469.49,384.35 L 462.92,388.73 L 461.82,397.49 L 458.54,404.06 L 446.49,405.15 L 426.15,407.10 L 415.83,409.53 L 409.39,405.42 L 412.84,400.72 L 411.58,394.77 L 417.85,386.93 L 411.27,378.79 L 398.73,374.08 L 392.84,367.92 L 408.17,361.35 L 420.21,362.45 L 432.26,363.54 L 447.59,366.83 L 461.82,367.92 L 468.39,363.54 L 479.34,369.02 Z"/><path id="r-trpce" data-region="Štrpce" d="M 480.53,477.71 L 470.25,482.62 L 455.96,493.07 L 450.96,496.73 L 440.15,500.77 L 427.86,503.88 L 427.81,503.71 L 426.07,497.75 L 418.17,490.67 L 409.70,486.91 L 402.18,485.34 L 390.27,484.40 L 377.42,480.95 L 373.10,474.45 L 374.16,467.39 L 376.99,462.09 L 381.93,462.80 L 389.35,461.74 L 397.82,459.27 L 402.41,455.74 L 408.06,451.15 L 422.54,447.97 L 423.18,442.09 L 423.81,436.76 L 429.60,434.55 L 439.92,436.91 L 447.59,441.29 L 453.06,441.29 L 451.97,434.72 L 451.97,425.96 L 459.63,425.96 L 464.01,432.53 L 471.68,435.81 L 476.06,441.29 L 485.91,443.48 L 491.39,452.24 L 491.39,455.52 L 484.82,459.90 L 478.25,462.09 L 478.25,468.66 L 480.53,477.71 Z"/></g></svg>